<svg xmlns="http://www.w3.org/2000/svg" viewBox="0 0 114.21 123.26"><defs><style>.cls-1{fill:none;}.cls-2{fill:#36464e;}.cls-3{fill:#263138;}.cls-4{fill:#f5c130;}.cls-5,.cls-6{fill:#040000;}.cls-5{opacity:0.1;}.cls-7{fill:#445963;}</style></defs><g id="圖層_2" data-name="圖層 2"><g id="圖層_3" data-name="圖層 3"><path class="cls-1" d="M38.67,120.17a67.66,67.66,0,0,1-1.27-7.71,5.47,5.47,0,0,1-.87-1.21c-2.06-3.92-3.41-9.86-4.35-15.9-.13,1.27-.25,2.59-.37,3.93a6.89,6.89,0,0,1-.81,9.41c-.56,6.76-1,12.28-1,12.28s-.31.11-.82.26c-.13.6-.27,1.18-.42,1.69,0,.1.07.21.12.34h6.57A6,6,0,0,1,38.67,120.17Z"/><path class="cls-2" d="M42.39,115.33l-.07,0,.07,0Z"/><path class="cls-2" d="M51,116.5h-.09a31.37,31.37,0,0,1-8.53-1.17h0c.56.22,1.11.45,1.67.65a18.82,18.82,0,0,0,6.33,1.18,28.86,28.86,0,0,0,6.39-.89,54.05,54.05,0,0,0,6.2-1.9,44.84,44.84,0,0,1-6.17,2,29.62,29.62,0,0,1-6.42.94A18.92,18.92,0,0,1,44,116.07a38.71,38.71,0,0,1-5.92-2.64c.4.21.82.39,1.23.58a8,8,0,0,1-1.94-1.55,67.66,67.66,0,0,0,1.27,7.71,5,5,0,0,1,1.55-.27c-.53-.26-1-.52-1.56-.8.56.28,1.13.53,1.7.79.11,0,.21,0,.32,0a5.35,5.35,0,0,1,4.07,1.72,16,16,0,0,0,5.06.86,26.57,26.57,0,0,0,5.81-.8l.16,0a5.35,5.35,0,0,1,4.09-1.74,5.85,5.85,0,0,1,1.28.09l.1,0-.1,0a4.82,4.82,0,0,1,1.13.36A34.85,34.85,0,0,0,64,113C60.07,116.49,51.88,116.51,51,116.5Zm5,4a27.88,27.88,0,0,1-6,.89,17.66,17.66,0,0,1-6-1.17,37,37,0,0,1-5.57-2.48,45.3,45.3,0,0,0,5.6,2.39A17.85,17.85,0,0,0,50,121.23a27.8,27.8,0,0,0,6-.83,54.44,54.44,0,0,0,5.83-1.79A42.32,42.32,0,0,1,56,120.49Zm.19-1.25a27.44,27.44,0,0,1-6,.88,17.75,17.75,0,0,1-6-1.16,37.5,37.5,0,0,1-5.57-2.48,45.3,45.3,0,0,0,5.6,2.39,17.6,17.6,0,0,0,5.95,1.1,26.61,26.61,0,0,0,6-.83A52.2,52.2,0,0,0,62,117.36,42.63,42.63,0,0,1,56.23,119.24Zm.41-1.36a28.59,28.59,0,0,1-6.25.92,18.26,18.26,0,0,1-6.19-1.21A37.6,37.6,0,0,1,38.44,115a45,45,0,0,0,5.8,2.48,18.51,18.51,0,0,0,6.15,1.15,29.13,29.13,0,0,0,6.23-.86,55.2,55.2,0,0,0,6-1.85A44.79,44.79,0,0,1,56.64,117.88Z"/><path class="cls-2" d="M55.67,121.76h0a26.56,26.56,0,0,1-5.83.85,15.69,15.69,0,0,1-4.94-.86,6.22,6.22,0,0,1,.9,1.5h8.34l.73-.16A6.88,6.88,0,0,1,55.67,121.76Z"/><path class="cls-2" d="M54.61,123.26h.16a.05.05,0,0,1,0,0Z"/><path class="cls-3" d="M54.84,123.1l-.73.16h.5l.18,0A.61.61,0,0,0,54.84,123.1Z"/><path class="cls-3" d="M38.66,119.1c.51.28,1,.54,1.56.8h.14C39.79,119.63,39.22,119.38,38.66,119.1Z"/><path class="cls-3" d="M61.25,120l-.1,0h0Z"/><path class="cls-3" d="M49.81,122.62a26.56,26.56,0,0,0,5.83-.85h0l.11-.13-.16,0a26.57,26.57,0,0,1-5.81.8,16,16,0,0,1-5.06-.86,1.58,1.58,0,0,1,.12.15A15.69,15.69,0,0,0,49.81,122.62Z"/><path class="cls-3" d="M50,121.23a17.85,17.85,0,0,1-5.94-1.11,45.3,45.3,0,0,1-5.6-2.39A37,37,0,0,0,44,120.21a17.66,17.66,0,0,0,6,1.17,27.88,27.88,0,0,0,6-.89,42.32,42.32,0,0,0,5.81-1.88A54.44,54.44,0,0,1,56,120.4,27.8,27.8,0,0,1,50,121.23Z"/><path class="cls-3" d="M50.19,120a17.6,17.6,0,0,1-5.95-1.1,45.3,45.3,0,0,1-5.6-2.39A37.5,37.5,0,0,0,44.21,119a17.75,17.75,0,0,0,6,1.16,27.44,27.44,0,0,0,6-.88,42.63,42.63,0,0,0,5.8-1.88,52.2,52.2,0,0,1-5.83,1.78A26.61,26.61,0,0,1,50.19,120Z"/><path class="cls-3" d="M50.39,118.65a18.51,18.51,0,0,1-6.15-1.15,45,45,0,0,1-5.8-2.48,37.6,37.6,0,0,0,5.76,2.57,18.26,18.26,0,0,0,6.19,1.21,28.59,28.59,0,0,0,6.25-.92,44.79,44.79,0,0,0,6-1.94,55.2,55.2,0,0,1-6,1.85A29.13,29.13,0,0,1,50.39,118.65Z"/><path class="cls-3" d="M44,116.07a18.92,18.92,0,0,0,6.36,1.24,29.62,29.62,0,0,0,6.42-.94,44.84,44.84,0,0,0,6.17-2,54.05,54.05,0,0,1-6.2,1.9,28.86,28.86,0,0,1-6.39.89A18.82,18.82,0,0,1,44.06,116c-.56-.2-1.11-.43-1.67-.65v0l-.07,0a14.23,14.23,0,0,1-3-1.3c-.41-.19-.83-.37-1.23-.58A38.71,38.71,0,0,0,44,116.07Z"/><path class="cls-4" d="M39.92,101.29a.9.9,0,0,0-.68-.06.86.86,0,0,0,.34,1.68.85.85,0,0,0,.6-.33.83.83,0,0,0,.17-.7A.87.87,0,0,0,39.92,101.29Z"/><path class="cls-4" d="M39.68,94.09A.88.88,0,0,0,39,94a.87.87,0,1,0,1.11.65A.89.89,0,0,0,39.68,94.09Z"/><path class="cls-4" d="M38.79,72.91a.86.86,0,0,0-.68-.07.87.87,0,0,0-.57,1,.86.86,0,0,0,.91.69.88.88,0,0,0,.6-.32.86.86,0,0,0,.17-.71A.85.85,0,0,0,38.79,72.91Z"/><path class="cls-4" d="M39.43,86.89a.86.86,0,0,0-.68-.06.84.84,0,0,0-.57,1,.86.86,0,0,0,.9.7.89.89,0,0,0,.61-.33.92.92,0,0,0,.17-.7A.9.9,0,0,0,39.43,86.89Z"/><path class="cls-4" d="M39.18,79.69a.86.86,0,1,0-.34,1.61.86.86,0,0,0,.77-1A.87.87,0,0,0,39.18,79.69Z"/><path class="cls-4" d="M32.63,72.82c2.26.91,3.45,4.88,2.66,8.88a9.36,9.36,0,0,1-2.09,4.49c0,.16,0,.32-.05.47-.3,2.08-.63,5.18-1,8.69.94,6,2.29,12,4.35,15.9a5.47,5.47,0,0,0,.87,1.21A8,8,0,0,0,39.34,114a14.23,14.23,0,0,0,3,1.3l.07,0-.29-5.62-.25-5.66-.44-11.32-.34-11.32-.14-5.66-.09-5.67.29,5.66.25,5.66.44,11.32L42.16,104l.14,5.67.09,5.62a31.37,31.37,0,0,0,8.53,1.17H51c.87,0,9.06,0,13-3.47a6.45,6.45,0,0,0,1.43-1.78c3-5.66,4.46-15.54,5.4-23.86-1.76-.4-3.4-2.59-4-5.69-.8-4,.4-8,2.66-8.88a2.66,2.66,0,0,1,2.37.22,1.84,1.84,0,0,0-.89-.67,67.89,67.89,0,0,0-11.37-2.78A5.17,5.17,0,0,1,58.37,72c-1.68,1.28-6,2.49-9.2,2-2.4-.36-5.57-1.7-6.34-2.5a5.58,5.58,0,0,1-.61-1.92A69,69,0,0,0,31,72.37a1.9,1.9,0,0,0-1,.84A2.73,2.73,0,0,1,32.63,72.82Zm5.88,36.68a1.14,1.14,0,0,1,.2-.86,1.07,1.07,0,1,1,1.16,1.67,1.06,1.06,0,0,1-1.36-.81Zm1.11-6.39a1.08,1.08,0,0,1-.84-.1,1,1,0,0,1-.51-.71,1.09,1.09,0,0,1,.19-.86,1.07,1.07,0,1,1,1.16,1.67Zm-.25-7.2a1.09,1.09,0,0,1-.84-.1A1,1,0,0,1,38,95.1a1.06,1.06,0,0,1,.2-.86,1,1,0,0,1,.73-.41,1.07,1.07,0,0,1,.42,2.08Zm-.25-7.2a1.06,1.06,0,0,1-.83-.1,1.14,1.14,0,0,1-.52-.71,1.07,1.07,0,1,1,1.35.81Zm-.24-7.2a1.07,1.07,0,1,1,.73-1.23A1.08,1.08,0,0,1,38.88,81.51Zm-1.55-8.46a1.07,1.07,0,1,1,.32,1.58,1.09,1.09,0,0,1-.32-1.58Z"/><path class="cls-4" d="M40.17,108.49a.9.9,0,0,0-.68-.06.86.86,0,1,0,.94,1.35.86.86,0,0,0-.26-1.29Z"/><polygon class="cls-2" points="42.39 115.33 42.39 115.33 42.39 115.33 42.39 115.33 42.39 115.33"/><polygon class="cls-5" points="42.39 115.33 42.39 115.33 42.39 115.33 42.39 115.33 42.39 115.33"/><polygon class="cls-3" points="42.39 115.37 42.39 115.33 42.39 115.33 42.39 115.37"/><polygon class="cls-5" points="42.39 115.37 42.39 115.33 42.39 115.33 42.39 115.37"/><polygon class="cls-4" points="42.3 109.71 42.16 104.04 41.82 92.72 41.38 81.4 41.13 75.74 40.84 70.08 40.93 75.75 41.07 81.41 41.41 92.73 41.85 104.05 42.1 109.71 42.39 115.33 42.39 115.33 42.3 109.71"/><polygon class="cls-5" points="42.3 109.71 42.16 104.04 41.82 92.72 41.38 81.4 41.13 75.74 40.84 70.08 40.93 75.75 41.07 81.41 41.41 92.73 41.85 104.05 42.1 109.71 42.39 115.33 42.39 115.33 42.3 109.71"/><path class="cls-4" d="M37.65,74.63a1.08,1.08,0,0,0,.84.09,1.06,1.06,0,0,0,.73-1.23.86.86,0,0,1-.17.71.88.88,0,0,1-.6.32.86.86,0,0,1-.91-.69.87.87,0,0,1,.57-1,.87.87,0,0,1,1.11.65,1.07,1.07,0,0,0-1.89-.44,1.09,1.09,0,0,0,.32,1.58Z"/><path class="cls-5" d="M37.65,74.63a1.08,1.08,0,0,0,.84.09,1.06,1.06,0,0,0,.73-1.23.86.86,0,0,1-.17.71.88.88,0,0,1-.6.32.86.86,0,0,1-.91-.69.87.87,0,0,1,.57-1,.87.87,0,0,1,1.11.65,1.07,1.07,0,0,0-1.89-.44,1.09,1.09,0,0,0,.32,1.58Z"/><path class="cls-4" d="M38.46,79.42a1.07,1.07,0,1,0,1.15.86.86.86,0,0,1-.77,1,.86.86,0,1,1,.34-1.61.87.87,0,0,1,.43.59A1.07,1.07,0,0,0,38.46,79.42Z"/><path class="cls-5" d="M38.46,79.42a1.07,1.07,0,1,0,1.15.86.86.86,0,0,1-.77,1,.86.86,0,1,1,.34-1.61.87.87,0,0,1,.43.59A1.07,1.07,0,0,0,38.46,79.42Z"/><path class="cls-4" d="M38.71,86.62a1.08,1.08,0,0,0-.94,1.28,1.14,1.14,0,0,0,.52.71,1.06,1.06,0,0,0,.83.1,1.09,1.09,0,0,0,.74-1.23.92.92,0,0,1-.17.7.89.89,0,0,1-.61.33.86.86,0,0,1-.9-.7.84.84,0,0,1,.57-1,.86.86,0,0,1,.68.06.9.9,0,0,1,.43.59A1.08,1.08,0,0,0,38.71,86.62Z"/><path class="cls-5" d="M38.71,86.62a1.08,1.08,0,0,0-.94,1.28,1.14,1.14,0,0,0,.52.71,1.06,1.06,0,0,0,.83.1,1.09,1.09,0,0,0,.74-1.23.92.92,0,0,1-.17.7.89.89,0,0,1-.61.33.86.86,0,0,1-.9-.7.84.84,0,0,1,.57-1,.86.86,0,0,1,.68.06.9.9,0,0,1,.43.59A1.08,1.08,0,0,0,38.71,86.62Z"/><path class="cls-4" d="M39,93.83a1,1,0,0,0-.73.41,1.06,1.06,0,0,0-.2.86,1,1,0,0,0,.51.71,1.09,1.09,0,0,0,.84.1,1.07,1.07,0,0,0,.73-1.23.84.84,0,1,1-.42-.59.89.89,0,0,1,.42.59A1.06,1.06,0,0,0,39,93.83Z"/><path class="cls-5" d="M39,93.83a1,1,0,0,0-.73.41,1.06,1.06,0,0,0-.2.86,1,1,0,0,0,.51.71,1.09,1.09,0,0,0,.84.1,1.07,1.07,0,0,0,.73-1.23.84.84,0,1,1-.42-.59.89.89,0,0,1,.42.59A1.06,1.06,0,0,0,39,93.83Z"/><path class="cls-4" d="M39.2,101a1.07,1.07,0,0,0-.74.41,1.09,1.09,0,0,0-.19.86,1,1,0,0,0,.51.71,1.08,1.08,0,0,0,.84.1,1.06,1.06,0,0,0,.73-1.23.83.83,0,0,1-.17.7.85.85,0,0,1-.6.33.86.86,0,0,1-.34-1.68.9.9,0,0,1,.68.06.87.87,0,0,1,.43.59A1.06,1.06,0,0,0,39.2,101Z"/><path class="cls-5" d="M39.2,101a1.07,1.07,0,0,0-.74.41,1.09,1.09,0,0,0-.19.86,1,1,0,0,0,.51.71,1.08,1.08,0,0,0,.84.1,1.06,1.06,0,0,0,.73-1.23.83.83,0,0,1-.17.7.85.85,0,0,1-.6.33.86.86,0,0,1-.34-1.68.9.9,0,0,1,.68.06.87.87,0,0,1,.43.59A1.06,1.06,0,0,0,39.2,101Z"/><path class="cls-4" d="M39.87,110.31a1.06,1.06,0,0,0,.73-1.23.91.91,0,0,1-.17.7.85.85,0,0,1-.6.33.86.86,0,0,1-.34-1.68.85.85,0,0,1,1.11.65,1.07,1.07,0,0,0-1.89-.44,1.07,1.07,0,0,0,.32,1.58A1.12,1.12,0,0,0,39.87,110.31Z"/><path class="cls-5" d="M39.87,110.31a1.06,1.06,0,0,0,.73-1.23.91.91,0,0,1-.17.7.85.85,0,0,1-.6.33.86.86,0,0,1-.34-1.68.85.85,0,0,1,1.11.65,1.07,1.07,0,0,0-1.89-.44,1.07,1.07,0,0,0,.32,1.58A1.12,1.12,0,0,0,39.87,110.31Z"/><path class="cls-2" d="M50.76,69.44a20.74,20.74,0,0,0,4.43-.62c.51-.12,1-.27,1.51-.41l-4.19-.06a14.72,14.72,0,0,1-1.75.13,10.33,10.33,0,0,1-2.08-.2l-3.37-.07,1.07.41A13.22,13.22,0,0,0,50.76,69.44Z"/><path class="cls-2" d="M51.71,68.33l-2.35,0a9.32,9.32,0,0,0,1.4.09C51.07,68.38,51.39,68.36,51.71,68.33Z"/><path class="cls-2" d="M49.17,74c3.19.47,7.52-.74,9.2-2a5.17,5.17,0,0,0,1.2-2.42q.16-.54.3-1.14l-3,0c-.56.17-1.12.34-1.68.48a19.68,19.68,0,0,1-4.45.65,13,13,0,0,1-4.4-.85c-.41-.15-.81-.32-1.22-.49l-2.19,0a30.46,30.46,0,0,0,3.44,1.44,12.23,12.23,0,0,0,4.22.79,19.27,19.27,0,0,0,4.28-.59A37.32,37.32,0,0,0,59,68.52a30,30,0,0,1-4.12,1.34,20.11,20.11,0,0,1-4.29.63,12.7,12.7,0,0,1-4.26-.83,27,27,0,0,1-3.44-1.51l-1,0c.09.53.18,1,.27,1.48a5.58,5.58,0,0,0,.61,1.92C43.6,72.33,46.77,73.67,49.17,74Zm-6.9-5.25a30.45,30.45,0,0,0,4,1.7,12.23,12.23,0,0,0,4.22.79,19.27,19.27,0,0,0,4.28-.59,37.32,37.32,0,0,0,4.14-1.27,30,30,0,0,1-4.12,1.34,20.11,20.11,0,0,1-4.29.63,12.7,12.7,0,0,1-4.26-.83A26.44,26.44,0,0,1,42.27,68.78Zm4,2.62a12.38,12.38,0,0,0,4.08.76,19.94,19.94,0,0,0,4.13-.57,37.66,37.66,0,0,0,4-1.23,29.5,29.5,0,0,1-4,1.3,19.24,19.24,0,0,1-4.14.6,12.06,12.06,0,0,1-4.11-.8,25.11,25.11,0,0,1-3.82-1.7A31.13,31.13,0,0,0,46.27,71.4Zm0,1a11.67,11.67,0,0,0,3.91.73,18.26,18.26,0,0,0,4-.55A34.65,34.65,0,0,0,58,71.38a28.37,28.37,0,0,1-3.82,1.24,17.79,17.79,0,0,1-4,.58,11.36,11.36,0,0,1-3.94-.77A24.44,24.44,0,0,1,42.6,70.8,30.06,30.06,0,0,0,46.29,72.37Z"/><path class="cls-3" d="M50.2,73.2a17.79,17.79,0,0,0,4-.58A28.37,28.37,0,0,0,58,71.38a34.65,34.65,0,0,1-3.84,1.17,18.26,18.26,0,0,1-4,.55,11.67,11.67,0,0,1-3.91-.73A30.06,30.06,0,0,1,42.6,70.8a24.44,24.44,0,0,0,3.66,1.63A11.36,11.36,0,0,0,50.2,73.2Z"/><path class="cls-3" d="M50.35,72.26a19.24,19.24,0,0,0,4.14-.6,29.5,29.5,0,0,0,4-1.3,37.66,37.66,0,0,1-4,1.23,19.94,19.94,0,0,1-4.13.57,12.38,12.38,0,0,1-4.08-.76,31.13,31.13,0,0,1-3.85-1.64,25.11,25.11,0,0,0,3.82,1.7A12.06,12.06,0,0,0,50.35,72.26Z"/><path class="cls-3" d="M50.49,71.38a20.11,20.11,0,0,0,4.29-.63,30,30,0,0,0,4.12-1.34,37.32,37.32,0,0,1-4.14,1.27,19.27,19.27,0,0,1-4.28.59,12.23,12.23,0,0,1-4.22-.79,30.45,30.45,0,0,1-4-1.7,26.44,26.44,0,0,0,4,1.77A12.7,12.7,0,0,0,50.49,71.38Z"/><path class="cls-3" d="M46.36,69.66a12.7,12.7,0,0,0,4.26.83,20.11,20.11,0,0,0,4.29-.63A30,30,0,0,0,59,68.52a37.32,37.32,0,0,1-4.14,1.27,19.27,19.27,0,0,1-4.28.59,12.23,12.23,0,0,1-4.22-.79A30.46,30.46,0,0,1,43,68.15h0A27,27,0,0,0,46.36,69.66Z"/><path class="cls-3" d="M55.19,68.82a20.74,20.74,0,0,1-4.43.62,13.22,13.22,0,0,1-4.38-.82l-1.07-.41h-.17c.41.17.81.34,1.22.49a13,13,0,0,0,4.4.85,19.68,19.68,0,0,0,4.45-.65c.56-.14,1.12-.31,1.68-.48H56.7C56.2,68.55,55.7,68.7,55.19,68.82Z"/><path class="cls-3" d="M52.51,68.35l-.8,0c-.32,0-.64,0-1,0a9.32,9.32,0,0,1-1.4-.09h-.68a10.33,10.33,0,0,0,2.08.2A14.72,14.72,0,0,0,52.51,68.35Z"/><path class="cls-6" d="M94,62.46a5.78,5.78,0,0,0,4.77-4.82l3.11-20a5.79,5.79,0,0,0-3.56-6.26l-4.62-1.85c-1,15.73-2.49,27.36-3.4,33.6C91.19,62.92,92.6,62.68,94,62.46Z"/><path class="cls-6" d="M3.44,31A5.79,5.79,0,0,0,.1,37.39l3.8,19.9a5.76,5.76,0,0,0,4.93,4.65c1.22.16,2.45.33,3.36.47-1.27-8.43-2.26-21.94-3-33.95Z"/><path class="cls-4" d="M51.44,4.53A.89.89,0,1,0,51,2.89a.88.88,0,0,0-.22,1.33A.89.89,0,0,0,51.44,4.53Z"/><path class="cls-4" d="M43,68.15l2.19,0h.17l3.37.07h.68l2.35,0,.8,0,4.19.06h.19l3,0c9.53.1,19.68.08,29.59-.16,0,0,.33-1.8.82-5.18.91-6.24,2.38-17.87,3.4-33.6.51-7.75.9-16.48,1.06-26.06C94.74,3.45,47-4,8,3c0,0,.41,11.75,1.21,25.46.7,12,1.69,25.52,3,33.95.27,1.81.55,3.38.85,4.66,0,0,12,.63,28.91,1.06l1,0ZM51.76,2.58a1.09,1.09,0,0,1,1,1.27,1.1,1.1,0,0,1-.5.75,1,1,0,0,1-.85.13,1.09,1.09,0,0,1-.8-1.23A1.11,1.11,0,0,1,51.76,2.58Zm-21.12,61-2.59-.1h0c-6.17-.24-9.94-.43-9.94-.43,0-.25-.11-.5-.16-.77h0c0-.1-.05-.21-.07-.31h0c-.05-.25-.1-.5-.15-.77h0v0c0-.13-.05-.27-.07-.41v0L17.5,60h0s0-.05,0-.07,0-.05,0-.07h0c-.72-4.42-1.34-10.67-1.86-17.29h0a.15.15,0,0,0,0-.07v-.08h0c0-.34,0-.68-.08-1h0a.17.17,0,0,0,0-.07v-.07h0c-.09-1.12-.17-2.24-.25-3.37v0h0c0-.46-.07-.93-.1-1.39l-4.1.24,4.1-.34-.06-.87v0h0c0-.34,0-.68-.07-1h0a.2.2,0,0,0,0-.07v0c0-.75-.09-1.5-.14-2.25v0a.17.17,0,0,0,0-.07h0l-.06-1h0v0c-.05-.8-.1-1.59-.14-2.37h0c-.63-10.88-1-19.89-1-19.89,10.17-2.11,23.12-2.6,35.4-2.38,0-2.08,0-4.16,0-6.25,0,2.09.09,4.17.14,6.25C70,6.65,88.84,9.05,88.84,9.05c-.58,34.29-4.55,55-4.55,55l-1.85,0h0l-2,0h-.1l-1.91,0h-.26l-2.8,0h-.09c-14.91.15-29.66-.18-40.45-.53h-.08l-1.85-.06h-.33l-1.46-.06h-.47Z"/><path class="cls-4" d="M49.09,0c0,2.09,0,4.17,0,6.25h.11C49.18,4.2,49.14,2.12,49.09,0Z"/><path class="cls-5" d="M49.09,0c0,2.09,0,4.17,0,6.25h.11C49.18,4.2,49.14,2.12,49.09,0Z"/><path class="cls-4" d="M11.07,36.68l4.1-.24v-.1Z"/><path class="cls-5" d="M11.07,36.68l4.1-.24v-.1Z"/><path class="cls-4" d="M51.41,4.73a1,1,0,0,0,.85-.13,1.1,1.1,0,0,0,.5-.75,1.09,1.09,0,1,0-2.15-.35A.92.92,0,0,1,51,2.89a.88.88,0,1,1-.22,1.33.92.92,0,0,1-.2-.72A1.09,1.09,0,0,0,51.41,4.73Z"/><path class="cls-5" d="M51.41,4.73a1,1,0,0,0,.85-.13,1.1,1.1,0,0,0,.5-.75,1.09,1.09,0,1,0-2.15-.35A.92.92,0,0,1,51,2.89a.88.88,0,1,1-.22,1.33.92.92,0,0,1-.2-.72A1.09,1.09,0,0,0,51.41,4.73Z"/><path class="cls-2" d="M30.69,63.54Z"/><path class="cls-2" d="M34.83,63.68h0Z"/><path class="cls-2" d="M14.82,30.94h0l.06,1h0C14.86,31.62,14.84,31.28,14.82,30.94Z"/><path class="cls-2" d="M32.9,63.62h0Z"/><path class="cls-2" d="M15,34.42h0c0,.34,0,.68.07,1h0C15.09,35.1,15.06,34.76,15,34.42Z"/><path class="cls-2" d="M14.82,30.83a0,0,0,0,1,0,0h0c0-.73-.08-1.46-.13-2.18h0v-.07c0,.78.09,1.57.14,2.37v-.09Z"/><path class="cls-2" d="M17.85,61.93c0,.1,0,.21.07.31a.17.17,0,0,1,0-.07Z"/><path class="cls-2" d="M75.37,64.21h0Z"/><path class="cls-2" d="M15.45,40.23h0v-.07a.17.17,0,0,0,0-.07h0c0-.34,0-.68-.07-1h0s0,0,0-.07v-.07h0c0-.34,0-.68-.07-1h0v0c.08,1.13.16,2.25.25,3.37h0C15.5,40.91,15.47,40.57,15.45,40.23Z"/><path class="cls-2" d="M17.94,62.31h0s0-.05,0-.07c0,.27.11.52.16.77,0,0,3.77.19,9.94.43-6.17-.24-9.94-.44-9.94-.44C18,62.79,18,62.55,17.94,62.31Z"/><path class="cls-2" d="M78.43,64.18h0Z"/><path class="cls-2" d="M17.13,57.52h0c-.09-.7-.19-1.44-.28-2.21,0,0,0,0,0,0v-.05c-.05-.36-.09-.74-.13-1.11h0c-.13-1.13-.26-2.31-.38-3.53a0,0,0,0,0,0,0h0c0-.35-.07-.7-.11-1.06v0a.13.13,0,0,0,0-.06h0l-.09-1h0v-.08s0,0,0-.06h0l-.09-1h0a.17.17,0,0,0,0-.07v-.07h0c-.13-1.47-.26-3-.38-4.5h0c.52,6.62,1.14,12.87,1.86,17.29h0C17.36,59.12,17.25,58.34,17.13,57.52Z"/><path class="cls-2" d="M15,33.26h0v0c0-.38-.05-.76-.08-1.14h0v0c0,.75.09,1.5.14,2.25v0Z"/><path class="cls-2" d="M17.5,60l.12.7c0-.22-.08-.47-.11-.7Z"/><path class="cls-2" d="M17.7,61.15c.05.27.1.52.15.77-.05-.25-.1-.51-.14-.77Z"/><path class="cls-2" d="M15.53,41.39h0c0,.34.05.68.08,1h0C15.58,42.07,15.56,41.73,15.53,41.39Z"/><path class="cls-2" d="M17.68,61h0a2.68,2.68,0,0,1-.05-.3c0,.14,0,.28.07.41s0,0,0,0A.17.17,0,0,0,17.68,61Z"/><path class="cls-2" d="M14.62,27.46h0v0c0-.78-.09-1.55-.13-2.3h0v0c0-.39,0-.76-.06-1.14h0v0c0-.81-.08-1.62-.12-2.39v0h0c0-.35,0-.68-.05-1h0v0c-.16-3.26-.28-6.06-.37-8.11h0v-.14h0c0-.88-.07-1.64-.09-2.21,2.62-.49,5.41-.88,8.31-1.19h0a203.71,203.71,0,0,1,23-.9h.33c2.69,0,5.36.1,8,.2l.79,0h-.16c7.26.28,14,.76,19.51,1.23h.09l.9.08.29,0c6,.54,10.22,1,11.49,1.19h0l.39.05v.1h0c0,.34,0,.68,0,1h0a.08.08,0,0,0,0,.07.17.17,0,0,0,0,.07h0c0,.35,0,.7,0,1v.11h0l0,1h0v.07a.17.17,0,0,0,0,.07h0l0,1h0v.07a.17.17,0,0,0,0,.07h0c0,.34,0,.69,0,1v.11l0,1.05h0v.07a.17.17,0,0,0,0,.07h0l0,1.07v0h0c0,.36,0,.72,0,1.08h0v.14c0,.36,0,.72,0,1.08h0v0c0,.36,0,.72,0,1.09v.11c0,.35,0,.69,0,1h0a.2.2,0,0,0,0,.07v.07h0c0,.35,0,.7,0,1v.05a.2.2,0,0,0,0,.07h0c0,.34,0,.68,0,1h0a.17.17,0,0,0,0,.07v.07h0c0,.35,0,.69,0,1V27a.2.2,0,0,0,0,.07h0l-.06,1h0v.14h0l-.06,1h0v.06h0v.06h0l-.06,1h0v.14h0L86,31.67v0h0c0,.35,0,.68-.06,1h0v0c0,.39,0,.79-.08,1.18v0a.17.17,0,0,0,0,.07h0c0,.35,0,.68-.07,1h0v0c-.06.8-.11,1.58-.17,2.35v0a.13.13,0,0,0,0,.06h0c-.09,1.15-.18,2.26-.27,3.34h0s0,0,0,.07V41h0q-.1,1.19-.21,2.31h0c0,.37-.07.72-.1,1.08h0s0,0,0,.07h0c0,.39-.07.78-.11,1.16h0c0,.35-.07.68-.1,1h0s0,0,0,.07v.07h0c0,.34-.07.68-.1,1h0v0c-.09.79-.17,1.56-.25,2.3,0,0,0,0,0,.06v0c-.09.76-.17,1.5-.26,2.2h0v.14h0q-.06.52-.12,1h0v0c-.1.81-.2,1.57-.29,2.29h0a.22.22,0,0,0,0,.08.07.07,0,0,0,0,0c-.05.35-.09.69-.14,1h0v.14h0c0,.37-.1.72-.14,1.06a0,0,0,0,0,0,0s0,.05,0,.08h0c0,.35-.1.69-.15,1h0v0c-.06.4-.11.78-.17,1.14h0a.15.15,0,0,0,0,.07.25.25,0,0,0,0,.07h0c0,.37-.11.7-.16,1h0a.14.14,0,0,0,0,.07s0,0,0,.07h0c-.16,1-.29,1.79-.37,2.25h0l1.85,0s4-20.73,4.55-55c0,0-18.81-2.4-39.61-2.77h-.11c-12.28-.22-25.23.27-35.4,2.38,0,0,.33,9,1,19.89v0Q14.65,28,14.62,27.46Z"/><path class="cls-2" d="M15.2,36.75h0s0,0,0-.07v-.07h0c0-.34,0-.69-.07-1h0a.13.13,0,0,1,0-.06v-.05l.06.87v.1c0,.46.07.93.1,1.39v0C15.25,37.44,15.22,37.1,15.2,36.75Z"/><path class="cls-3" d="M84.37,50.13c.08-.74.16-1.51.25-2.3,0,0,0,0,0,0s0,.05,0,.07L52.82,47.6A4.23,4.23,0,0,1,51,48,4.85,4.85,0,0,1,49,47.56L16,47.2l.09,1L84.49,49V49s0,0,0,.07l-68.36-.73.09,1,68.16.73Z"/><path class="cls-3" d="M73.23,44.2,85,44.32v.06c0-.36.07-.71.1-1.08l-11.9-.12A4.91,4.91,0,0,1,73.23,44.2Z"/><path class="cls-3" d="M83.67,55.91c.09-.72.19-1.48.29-2.29,0,0,0,0,0,.05a.13.13,0,0,1,0,.06L16.59,53a1269342249784,1269342249784,0,0,1,0-.14L84,53.59q.06-.5.12-1l-67.62-.72s0-.05,0-.07v-.07l67.65.72c.09-.7.17-1.44.26-2.2a0,0,0,0,0,0,0l-68.12-.73a.06.06,0,0,1,0,0c0,.36.07.71.11,1.06l67.9.73v.07s0,0,0,.07l-67.88-.73s0,0,0-.08v0c.12,1.22.25,2.4.38,3.53a.22.22,0,0,1,0-.08l67.12.72s0,0,0,.08a.13.13,0,0,1,0,.06l-67.07-.72a.13.13,0,0,1,0-.06c0,.37.08.75.13,1.11v0Z"/><path class="cls-3" d="M73.07,45.35l11.78.13v.07s0,0,0,.07c0-.38.08-.77.11-1.16l-11.73-.12A4.83,4.83,0,0,1,73.07,45.35Z"/><path class="cls-3" d="M72.59,46.51l12.15.13c0-.34.07-.67.1-1L73,45.49A4.08,4.08,0,0,1,72.59,46.51Z"/><path class="cls-3" d="M70.8,47.65l13.82.15c0-.34.07-.68.1-1l-12.24-.13A2.17,2.17,0,0,1,70.8,47.65Z"/><path class="cls-3" d="M72.74,41.86,85.18,42s0,0,0,.07a.17.17,0,0,1,0,.07L72.82,42a4.19,4.19,0,0,1,.32,1l11.93.13v.07s0,0,0,.06q.1-1.12.21-2.31l-13.42-.15A2.7,2.7,0,0,1,72.74,41.86Z"/><path class="cls-3" d="M14.42,23.83l71.92.77v0c0-.34,0-.69,0-1l-72-.77a.17.17,0,0,1,0-.07v-.07l72,.77c0-.34,0-.68,0-1h0l-72.12-.77s0,0,0-.07v0c0,.77.08,1.58.12,2.39v-.12Z"/><path class="cls-3" d="M14.24,20.35l72.25.77v.06c0-.36,0-.72,0-1.08h0l-72.33-.78v-.06a.22.22,0,0,1,0-.08L86.53,20c0-.36,0-.72,0-1.08a.13.13,0,0,1,0,.06l-72.42-.78a.17.17,0,0,1,0-.07V18l72.44.78v.05l0-1.07L14.08,17v-.07s0-.05,0-.07l72.54.78,0-1.05v0L14,15.84V15.7l72.62.78h0c0-.33,0-.68,0-1L14,14.68v-.07s0,0,0-.07l72.7.78,0-1-72.78-.78v-.07a.2.2,0,0,1,0-.07l72.79.78,0-1-72.86-.78c.09,2.05.21,4.85.37,8.11v-.12Z"/><path class="cls-3" d="M14.48,25l71.8.77c0-.34,0-.68,0-1L14.43,24c0,.38,0,.75.06,1.14v-.05S14.48,25,14.48,25Z"/><path class="cls-3" d="M13.86,12.22v.07S13.86,12.24,13.86,12.22Z"/><path class="cls-3" d="M14.76,29.78a.2.2,0,0,1,0-.07v-.07L86,30.4l.06-1-71.41-.76c.05.72.09,1.45.13,2.18L86,31.56v.11L86,30.54Z"/><path class="cls-3" d="M29.91,40a2.14,2.14,0,0,1,1.12.27l38.8.41a1.85,1.85,0,0,1,.75-.2,2.16,2.16,0,0,1,1,.22l13.7.15c.09-1.08.18-2.19.27-3.34L15.2,36.75c0,.35.05.69.07,1v0l70.2.75a.15.15,0,0,1,0,.07.17.17,0,0,1,0,.07l-70.17-.75c0,.34.05.68.07,1l70,.75s0,0,0,.07,0,0,0,.07l-70-.75c0,.34.05.68.07,1l13.65.14A1.78,1.78,0,0,1,29.91,40Z"/><path class="cls-3" d="M14.61,27.32l71.55.77.06-1-71.67-.77v-.14l71.68.77h0c0-.34,0-.68,0-1l-71.79-.77c0,.75.08,1.52.13,2.3v-.05A.13.13,0,0,1,14.61,27.32Z"/><path class="cls-3" d="M14.62,27.46q0,.51.06,1.05v0l71.42.77.06-1Z"/><path class="cls-3" d="M68.37,43.12l-13-.14a7,7,0,0,1-.1,1l13.05.14A5.86,5.86,0,0,1,68.37,43.12Z"/><path class="cls-3" d="M14.82,30.94c0,.34,0,.68.07,1l71,.76c0-.34,0-.67.06-1Z"/><path class="cls-3" d="M33.7,63.64l-3-.1h.41l1.46.06h.33l1.85.06h.08c10.79.35,25.54.68,40.45.53h.09l2.8,0h.26l1.91,0Z"/><path class="cls-3" d="M15.53,41.39c0,.34.05.68.08,1l12.11.14a5.37,5.37,0,0,1,.3-1Z"/><path class="cls-3" d="M86.16,28.19v0Z"/><path class="cls-3" d="M14.82,30.87v0Z"/><path class="cls-3" d="M86.1,29.31h0Z"/><path class="cls-3" d="M83.35,58.27c0-.34.09-.69.14-1.06L17,56.5a.17.17,0,0,1,0-.07s0,0,0-.08l66.53.72c0-.34.09-.68.14-1h0l-66.8-.72v0c.09.77.19,1.51.28,2.21l66.22.71Z"/><path class="cls-3" d="M48,45.59a3.9,3.9,0,0,0,.82.66l4.07,0a4,4,0,0,0,.86-.79l.15-.22-6.18-.07C47.83,45.34,47.92,45.47,48,45.59Z"/><path class="cls-3" d="M51,46.88a3.13,3.13,0,0,0,1.73-.44l-3.61,0A4.07,4.07,0,0,0,51,46.88Z"/><path class="cls-3" d="M68.9,46.61l-14.7-.16a4.18,4.18,0,0,1-1.12,1l17.48.19A2.06,2.06,0,0,1,68.9,46.61Z"/><path class="cls-3" d="M68.43,45.44,54.84,45.3a6.44,6.44,0,0,1-.34.7,3.28,3.28,0,0,1-.2.31l14.52.16A4.08,4.08,0,0,1,68.43,45.44Z"/><path class="cls-3" d="M47.62,45.08l6.39.07a7.77,7.77,0,0,0,.58-1L47,44.05A7,7,0,0,0,47.62,45.08Z"/><path class="cls-3" d="M68.29,44.28l-13.08-.14a6.29,6.29,0,0,1-.31,1l13.5.14A5.69,5.69,0,0,1,68.29,44.28Z"/><path class="cls-3" d="M15,33.12l70.85.76v0c0-.39,0-.79.08-1.18a.09.09,0,0,1,0,0v.07l-71-.76c0,.38,0,.76.08,1.14a0,0,0,0,1,0-.05A.17.17,0,0,1,15,33.12Z"/><path class="cls-3" d="M46.94,43.91l7.72.09c.15-.33.29-.67.41-1l-8.55-.09A9.1,9.1,0,0,0,46.94,43.91Z"/><path class="cls-3" d="M28.86,40.37l-13.41-.14c0,.34.05.68.07,1l12.57.13A2.83,2.83,0,0,1,28.86,40.37Z"/><path class="cls-3" d="M83.17,59.46a.17.17,0,0,1,0,.07l-65.83-.71a.14.14,0,0,1,0-.07s0,0,0-.07l65.88.71c0-.32.1-.66.15-1l-66.17-.72a.14.14,0,0,1,0-.07.17.17,0,0,0,0-.07c.12.82.23,1.6.35,2.33l65.53.7c.06-.36.11-.74.17-1.14A.07.07,0,0,1,83.17,59.46Z"/><path class="cls-3" d="M15,33.26l.06,1h0l70.7.76c0-.34,0-.67.07-1Z"/><path class="cls-3" d="M83.5,57.17v-.1a.17.17,0,0,1,0,.07Z"/><path class="cls-3" d="M84.09,52.53v-.05s0,0,0,0Z"/><path class="cls-3" d="M47.54,46.38l-15.75-.17a2.15,2.15,0,0,1-1.75,1,2,2,0,0,1-1.77-1L15.91,46V46a.17.17,0,0,1,0-.07L28.18,46a4,4,0,0,1-.4-1l-12-.12s0-.05,0-.07v-.08l12,.13a5.58,5.58,0,0,1-.12-1l-11.92-.12v-.07s0,0,0-.08l11.92.13a4.86,4.86,0,0,1,.08-1l-12.08-.13c.12,1.52.25,3,.38,4.5l32.75.35A4.3,4.3,0,0,1,47.54,46.38Z"/><path class="cls-3" d="M46.48,44.05,32.55,43.9a4.84,4.84,0,0,1-.16,1l14.39.16A6.25,6.25,0,0,1,46.48,44.05Z"/><path class="cls-3" d="M82.45,64s0,0,0,.07h0c.08-.46.21-1.22.37-2.25l-65.1-.7c0,.26.09.52.14.77h0l.06.24h0l64.73.7a.2.2,0,0,1,0,.07.15.15,0,0,1,0,.07l-64.68-.7c0,.24.09.48.14.69,0,0,3.77.2,9.94.44h.12Z"/><path class="cls-3" d="M46.35,42.39c0,.12.08.24.12.36l8.65.09.21-.62c0,.21,0,.42,0,.62L68.39,43a4.85,4.85,0,0,1,.32-1l-36.53-.39a4.24,4.24,0,0,1,.3,1l13.87.15C46.35,42.63,46.34,42.51,46.35,42.39Z"/><path class="cls-3" d="M46.35,42.89l-13.84-.15a5.72,5.72,0,0,1,.05,1l13.89.15A7,7,0,0,1,46.35,42.89Z"/><path class="cls-3" d="M82.83,61.71c0-.32.11-.65.16-1L17.51,60c0,.23.07.48.11.7v0a2.68,2.68,0,0,0,.05.3Z"/><path class="cls-3" d="M69.57,40.81,31.25,40.4a2.62,2.62,0,0,1,.85,1l36.67.39A2.72,2.72,0,0,1,69.57,40.81Z"/><path class="cls-3" d="M47.34,46.13a5.52,5.52,0,0,1-.51-.92l-14.48-.16a3.79,3.79,0,0,1-.46,1l15.54.17Z"/><path class="cls-3" d="M73.59,9.37c-5.47-.47-12.25-.95-19.51-1.23L36.75,8c.9,0,1.79,0,2.69,0,1.9,0,3.81,0,5.71,0a203.71,203.71,0,0,0-23,.9Z"/><path class="cls-3" d="M86.73,13v0c0-.35,0-.7,0-1L13.82,11.2v-.14l72.93.78c0-.34,0-.68,0-1l-73-.79v0L14,10l.38-.07,72,.77c-1.27-.15-5.5-.65-11.49-1.19l.56.06L21,9c.18,0,.36,0,.55-.06l.57-.07c-2.9.31-5.69.7-8.31,1.19,0,.57.05,1.33.09,2.21Z"/><path class="cls-3" d="M51.13,8l2.32.08c-2.61-.1-5.28-.16-8-.2C47.38,8,49.27,8,51.13,8Z"/><path class="cls-3" d="M86.44,22.28v0c0-.37,0-.73,0-1.09v.05l-72.23-.77c0,.34,0,.67.05,1Z"/><path class="cls-3" d="M85.56,37.36v0c.06-.77.11-1.55.17-2.35v.06a.13.13,0,0,1,0,.06L15,34.42c0,.34.05.68.07,1l70.54.76a.25.25,0,0,1,0,.08v.06l-70.52-.76c0,.34,0,.69.07,1Z"/><path class="cls-7" d="M36.75,8l17.33.18h.16l-.79,0L51.13,8c-1.86,0-3.75-.09-5.65-.12h-.33c-1.9,0-3.81,0-5.71,0C38.54,7.92,37.65,7.94,36.75,8Z"/><path class="cls-7" d="M21,9l54.47.59-.56-.06-.29,0-.9-.08h-.09L22.12,8.82h0l-.57.07C21.32,8.9,21.14,8.93,21,9Z"/><path class="cls-7" d="M14.41,9.9,14,10l-.26,0v0l73,.79h0v-.1l-.39-.05h0Z"/><path class="cls-7" d="M13.82,11.06v.14L86.75,12h0a.17.17,0,0,1,0-.07.08.08,0,0,1,0-.07h0Z"/><path class="cls-7" d="M86.73,13.14h0V13l-72.87-.78h0s0,0,0,.07v.07h0Z"/><path class="cls-7" d="M13.91,13.38a.2.2,0,0,0,0,.07v.07l72.78.78h0a.17.17,0,0,1,0-.07v-.07h0Z"/><path class="cls-7" d="M14,14.54s0,0,0,.07v.07l72.7.78h0a.17.17,0,0,1,0-.07v-.07h0Z"/><path class="cls-7" d="M14,15.7v.14l72.62.78v-.14h0Z"/><path class="cls-7" d="M14.07,16.86s0,.05,0,.07V17l72.52.78h0a.17.17,0,0,1,0-.07v-.07h0Z"/><path class="cls-7" d="M14.13,18v.07a.17.17,0,0,0,0,.07l72.42.78a.13.13,0,0,0,0-.06h0V18.8Z"/><path class="cls-7" d="M14.18,19.18a.22.22,0,0,0,0,.08v.06l72.33.78h0V20h0Z"/><path class="cls-7" d="M86.48,21.26v-.07h0v-.06l-72.25-.77v.14h0Z"/><path class="cls-7" d="M14.31,21.65l72.12.77h0v-.13L14.3,21.51h0v.07S14.31,21.63,14.31,21.65Z"/><path class="cls-7" d="M14.36,22.67v.07a.17.17,0,0,0,0,.07l72,.77h0v-.07a.2.2,0,0,1,0-.07h0Z"/><path class="cls-7" d="M86.33,24.74h0a.2.2,0,0,1,0-.07V24.6l-71.92-.77V24h0Z"/><path class="cls-7" d="M86.28,25.9h0v-.07a.17.17,0,0,1,0-.07h0L14.48,25s0,.05,0,.07v.07h0Z"/><path class="cls-7" d="M14.55,26.15v.14l71.67.77h0a.2.2,0,0,1,0-.07v-.06h0Z"/><path class="cls-7" d="M86.16,28.23h0v-.14h0l-71.55-.77a.13.13,0,0,0,0,.06v.08h0Z"/><path class="cls-7" d="M14.68,28.62l71.41.76h0v-.06h0v-.06h0l-71.42-.77v.07h0v.07Z"/><path class="cls-7" d="M14.75,29.64v.07a.2.2,0,0,0,0,.07L86,30.54h0V30.4h0Z"/><path class="cls-7" d="M86,31.7h0v-.14L14.81,30.8h0a0,0,0,0,0,0,0v0h0v.06h0Z"/><path class="cls-7" d="M14.89,32.1l71,.76v-.07a.09.09,0,0,0,0,0v0h0l-71-.76h0a.17.17,0,0,1,0,.07v.07Z"/><path class="cls-7" d="M85.8,34h0a.17.17,0,0,1,0-.07v-.07L15,33.12a.17.17,0,0,0,0,.07,0,0,0,0,0,0,.05v0h0Z"/><path class="cls-7" d="M85.72,35.18a.13.13,0,0,0,0-.06V35h0L15,34.28h0v.07a.2.2,0,0,1,0,.07h0Z"/><path class="cls-7" d="M15.12,35.58h0l70.52.76v-.06a.25.25,0,0,0,0-.08l-70.54-.76h0v.08A.13.13,0,0,0,15.12,35.58Z"/><path class="cls-7" d="M85.55,37.5h0a.13.13,0,0,1,0-.06v-.08l-70.37-.75h0v.07s0,0,0,.07h0Z"/><path class="cls-7" d="M15.28,37.91l70.17.75a.17.17,0,0,0,0-.07.15.15,0,0,0,0-.07l-70.2-.75v.06h0v.07Z"/><path class="cls-7" d="M85.36,39.82s0,0,0-.07,0,0,0-.07l-70-.75h0V39s0,0,0,.07h0Z"/><path class="cls-7" d="M69.83,40.67,31,40.26c.08,0,.14.09.22.14l38.32.41A2.15,2.15,0,0,1,69.83,40.67Z"/><path class="cls-7" d="M29.08,40.23l-13.65-.14h0a.17.17,0,0,1,0,.07v.07h0l13.41.14Z"/><path class="cls-7" d="M71.85,40.83,85.27,41h0v-.07s0,0,0-.07h0l-13.7-.15Z"/><path class="cls-7" d="M28,41.52l.07-.14-12.57-.13h0v.07a.17.17,0,0,1,0,.07h0Z"/><path class="cls-7" d="M85.16,42.14a.17.17,0,0,0,0-.07s0,0,0-.07l-12.44-.14a1.09,1.09,0,0,1,.08.15Z"/><path class="cls-7" d="M68.77,41.82,32.1,41.43a1,1,0,0,1,.08.14L68.71,42Z"/><path class="cls-7" d="M68.39,43l-13.06-.14V43l13,.14S68.38,43,68.39,43Z"/><path class="cls-7" d="M27.7,42.69s0-.1,0-.14l-12.11-.14h0v.08a.15.15,0,0,1,0,.07h0Z"/><path class="cls-7" d="M46.52,42.89l8.55.09,0-.14-8.65-.09S46.5,42.84,46.52,42.89Z"/><path class="cls-7" d="M46.35,42.75,32.48,42.6l0,.14,13.84.15Z"/><path class="cls-7" d="M85.07,43.16,73.14,43a.77.77,0,0,1,0,.15l11.9.12h0s0,0,0-.06Z"/><path class="cls-7" d="M68.28,44.14,55.23,44s0,.1,0,.14l13.08.14S68.28,44.19,68.28,44.14Z"/><path class="cls-7" d="M73.23,44.2a.61.61,0,0,0,0,.14L85,44.46h0s0-.05,0-.07h0v-.06Z"/><path class="cls-7" d="M15.7,43.57s0,0,0,.08v.07l11.92.12a.61.61,0,0,1,0-.14Z"/><path class="cls-7" d="M46.45,43.91l-13.89-.15s0,.09,0,.14l13.93.15Z"/><path class="cls-7" d="M47,44.05l7.59.09.07-.14-7.72-.09Z"/><path class="cls-7" d="M46.78,45.07l-14.39-.16c0,.05,0,.1,0,.14l14.48.16C46.81,45.16,46.8,45.11,46.78,45.07Z"/><path class="cls-7" d="M84.85,45.48l-11.78-.13s0,.09,0,.14l11.81.13h0s0,0,0-.07Z"/><path class="cls-7" d="M15.8,44.73v.08s0,0,0,.07l12,.12,0-.14Z"/><path class="cls-7" d="M68.4,45.3l-13.5-.14-.06.14,13.59.14Z"/><path class="cls-7" d="M47.74,45.22l6.18.07.09-.14-6.39-.07Z"/><path class="cls-7" d="M31.89,46.07l-.1.14,15.75.17a1.34,1.34,0,0,1-.11-.14Z"/><path class="cls-7" d="M68.82,46.47,54.3,46.31a1.7,1.7,0,0,1-.1.14l14.7.16Z"/><path class="cls-7" d="M49.09,46.4l3.61,0,.21-.14-4.07,0C48.92,46.31,49,46.35,49.09,46.4Z"/><path class="cls-7" d="M15.9,45.9a.17.17,0,0,0,0,.07V46l12.36.13L28.18,46Z"/><path class="cls-7" d="M72.48,46.65l12.24.13h0v-.07s0-.05,0-.07h0l-12.15-.13A1.34,1.34,0,0,1,72.48,46.65Z"/><path class="cls-7" d="M48.91,47.51l-.16-.1L16,47.06h0v.07a.17.17,0,0,1,0,.07h0l33,.36Z"/><path class="cls-7" d="M70.7,47.66a.66.66,0,0,1-.14,0l-17.48-.19,0,0-.21.1,31.78.34s0,0,0-.07,0,0,0,0v0h0L70.8,47.65Z"/><path class="cls-7" d="M84.49,49V49L16.1,48.23h0s0,0,0,.06v.08h0l68.36.73S84.49,49.05,84.49,49Z"/><path class="cls-7" d="M84.35,50.26a0,0,0,0,1,0,0v0s0,0,0-.06h0l-68.16-.73h0a.13.13,0,0,1,0,.06v0a.06.06,0,0,0,0,0Z"/><path class="cls-7" d="M16.34,50.69l67.88.73s0-.05,0-.07v-.07l-67.9-.73h0a0,0,0,0,1,0,0v0S16.34,50.67,16.34,50.69Z"/><path class="cls-7" d="M16.45,51.78s0,0,0,.07l67.62.72h0v-.06s0,0,0,0v0h0l-67.65-.72Z"/><path class="cls-7" d="M16.58,52.94a.15.15,0,0,0,0,.07l67.35.72a.13.13,0,0,0,0-.06s0,0,0-.05v0h0l-67.39-.72A.15.15,0,0,0,16.58,52.94Z"/><path class="cls-7" d="M83.79,54.89a.13.13,0,0,0,0-.06s0,0,0-.08L16.7,54a.22.22,0,0,0,0,.08h0a.13.13,0,0,0,0,.06Z"/><path class="cls-7" d="M83.65,56.05h0a.07.07,0,0,1,0,0,.22.22,0,0,1,0-.08h0l-66.83-.72v.08s0,0,0,0v0Z"/><path class="cls-7" d="M17,56.43a.17.17,0,0,0,0,.07l66.49.71h0v-.07a.17.17,0,0,0,0-.07h0L17,56.35S17,56.4,17,56.43Z"/><path class="cls-7" d="M17.16,57.66l66.17.72h0s0-.05,0-.08a0,0,0,0,1,0,0v0l-66.22-.71h0a.17.17,0,0,1,0,.07A.14.14,0,0,0,17.16,57.66Z"/><path class="cls-7" d="M17.3,58.68s0,0,0,.07a.14.14,0,0,0,0,.07l65.83.71a.17.17,0,0,0,0-.07.07.07,0,0,0,0-.05v0h0Z"/><path class="cls-7" d="M83,60.69h0a.25.25,0,0,1,0-.07.15.15,0,0,1,0-.07h0l-65.53-.7h0s0,0,0,.07,0,0,0,.07h0Z"/><path class="cls-7" d="M82.81,61.85h0s0-.05,0-.07a.14.14,0,0,1,0-.07h0L17.68,61h0a.17.17,0,0,1,0,.07s0,0,0,0v0h0Z"/><path class="cls-7" d="M17.94,62.31l64.68.7a.15.15,0,0,0,0-.07.2.2,0,0,0,0-.07l-64.73-.7h0a.17.17,0,0,0,0,.07h0s0,0,0,.07Z"/><path class="cls-7" d="M30.7,63.54l3,.1,46.64.51h.1l2,0h0s0,0,0-.07l-54.31-.57h-.09l2.59.1h.06Z"/><path class="cls-4" d="M53.08,47.46a4.18,4.18,0,0,0,1.12-1,1.7,1.7,0,0,0,.1-.14,3.28,3.28,0,0,0,.2-.31,6.44,6.44,0,0,0,.34-.7l.06-.14a6.29,6.29,0,0,0,.31-1s0-.09,0-.14a7,7,0,0,0,.1-1v-.14c0-.2,0-.41,0-.62l-.21.62,0,.14c-.12.35-.26.69-.41,1l-.07.14a7.77,7.77,0,0,1-.58,1l-.09.14-.15.22a4,4,0,0,1-.86.79l-.21.14a3.13,3.13,0,0,1-1.73.44,4.07,4.07,0,0,1-1.88-.48c-.08,0-.17-.09-.25-.15a3.9,3.9,0,0,1-.82-.66c-.1-.12-.19-.25-.28-.37l-.12-.14a7,7,0,0,1-.62-1l-.06-.14a9.1,9.1,0,0,1-.42-1s0-.1-.05-.14-.09-.24-.12-.36c0,.12,0,.24,0,.36v.14a7,7,0,0,0,.1,1l0,.14a6.25,6.25,0,0,0,.3,1s0,.09,0,.14a5.52,5.52,0,0,0,.51.92l.09.11a1.34,1.34,0,0,0,.11.14,4.3,4.3,0,0,0,1.21,1l.16.1.11.05A4.85,4.85,0,0,0,51,48a4.23,4.23,0,0,0,1.87-.4l.21-.1Z"/><path class="cls-4" d="M68.77,41.82l-.06.14a4.85,4.85,0,0,0-.32,1c0,.05,0,.1,0,.14a5.86,5.86,0,0,0-.09,1s0,.1,0,.14a5.69,5.69,0,0,0,.11,1l0,.14a4.08,4.08,0,0,0,.39,1l.08.14a2.06,2.06,0,0,0,1.66,1,.66.66,0,0,0,.14,0h.1a2.17,2.17,0,0,0,1.68-1,1.34,1.34,0,0,0,.11-.14,4.08,4.08,0,0,0,.44-1c0-.05,0-.09,0-.14a4.83,4.83,0,0,0,.15-1,.61.61,0,0,1,0-.14,4.91,4.91,0,0,0-.07-1,.77.77,0,0,0,0-.15,4.19,4.19,0,0,0-.32-1,1.09,1.09,0,0,0-.08-.15,2.7,2.7,0,0,0-.89-1l-.27-.14a2.16,2.16,0,0,0-1-.22,1.85,1.85,0,0,0-.75.2,2.15,2.15,0,0,0-.26.14A2.72,2.72,0,0,0,68.77,41.82Z"/><path class="cls-4" d="M27.62,43.7a.61.61,0,0,0,0,.14,5.58,5.58,0,0,0,.12,1l0,.14a4,4,0,0,0,.4,1l.09.14a2,2,0,0,0,1.77,1,2.15,2.15,0,0,0,1.75-1l.1-.14a3.79,3.79,0,0,0,.46-1s0-.09,0-.14a4.84,4.84,0,0,0,.16-1s0-.1,0-.14a5.72,5.72,0,0,0-.05-1l0-.14a4.24,4.24,0,0,0-.3-1,1,1,0,0,0-.08-.14,2.62,2.62,0,0,0-.85-1c-.08,0-.14-.1-.22-.14A2.14,2.14,0,0,0,29.91,40a1.78,1.78,0,0,0-.83.24l-.22.14a2.83,2.83,0,0,0-.77,1l-.07.14a5.37,5.37,0,0,0-.3,1s0,.09,0,.14A4.86,4.86,0,0,0,27.62,43.7Z"/><path class="cls-4" d="M61.15,120a5.85,5.85,0,0,0-1.28-.09,5.35,5.35,0,0,0-4.09,1.74l-.11.13a6.88,6.88,0,0,0-.83,1.34.61.61,0,0,1-.05.12.05.05,0,0,0,0,0H65.05a6.35,6.35,0,0,0-2.77-2.92,4.82,4.82,0,0,0-1.13-.36Z"/><path class="cls-4" d="M44.75,121.61a5.35,5.35,0,0,0-4.07-1.72c-.11,0-.21,0-.32,0h-.14a5,5,0,0,0-1.55.27,6,6,0,0,0-3.18,3.09H45.77a6.22,6.22,0,0,0-.9-1.5A1.58,1.58,0,0,0,44.75,121.61Z"/><path class="cls-2" d="M28.69,123.26h.23c-.05-.13-.09-.24-.12-.34C28.76,123,28.72,123.15,28.69,123.26Z"/><path class="cls-2" d="M13.71,122.6c0,.21,0,.43,0,.66h.15C13.8,123.05,13.76,122.83,13.71,122.6Z"/><path class="cls-2" d="M14.53,123.26l-.6-.3c.21.1.43.19.64.3h1.69a22.88,22.88,0,0,1-2.46-1.15,27.55,27.55,0,0,0,2.61,1.15h2.22c-.43-.12-.86-.24-1.27-.39a22.52,22.52,0,0,1-3.44-1.53,27,27,0,0,0,3.46,1.47,13.92,13.92,0,0,0,1.56.45h4.5q.66-.12,1.32-.27a31.88,31.88,0,0,0,3.6-1.11,26.27,26.27,0,0,1-3.58,1.17l-.94.21h2.64c.59-.19,1.19-.38,1.77-.6-.54.22-1.09.41-1.65.6h2.09c0-.11.07-.22.11-.34.15-.51.29-1.09.42-1.69a24.44,24.44,0,0,1-3.36.74c-.27.08-.54.17-.82.24a18.07,18.07,0,0,1-3.86.56,11.38,11.38,0,0,1-3.83-.74,24.15,24.15,0,0,1-3.56-1.59A29.63,29.63,0,0,0,17.37,122a11.33,11.33,0,0,0,3.81.71,17.85,17.85,0,0,0,3.84-.53l.41-.12a16.94,16.94,0,0,1-6.68-.3,16.39,16.39,0,0,1-4.54-2c-.21-.11-.42-.2-.62-.31.17.09.36.17.54.25a9.24,9.24,0,0,1-1-.7c.14,1.19.33,2.52.54,3.59,0,.23.09.45.14.66Z"/><path class="cls-3" d="M14.53,123.26h0c-.21-.11-.43-.2-.64-.3Z"/><path class="cls-3" d="M26.48,123.26h.12c.56-.19,1.11-.38,1.65-.6C27.67,122.88,27.07,123.07,26.48,123.26Z"/><path class="cls-3" d="M13.8,122.11a22.88,22.88,0,0,0,2.46,1.15h.15A27.55,27.55,0,0,1,13.8,122.11Z"/><path class="cls-3" d="M28.36,121.88a31.88,31.88,0,0,1-3.6,1.11q-.66.15-1.32.27h.4l.94-.21A26.27,26.27,0,0,0,28.36,121.88Z"/><path class="cls-3" d="M17.38,122.81a27,27,0,0,1-3.46-1.47,22.52,22.52,0,0,0,3.44,1.53c.41.15.84.27,1.27.39h.31A13.92,13.92,0,0,1,17.38,122.81Z"/><path class="cls-3" d="M25,122.15a17.85,17.85,0,0,1-3.84.53,11.33,11.33,0,0,1-3.81-.71,29.63,29.63,0,0,1-3.58-1.53A24.15,24.15,0,0,0,17.35,122a11.38,11.38,0,0,0,3.83.74,18.07,18.07,0,0,0,3.86-.56c.28-.07.55-.16.82-.24l-.43.06Z"/><path class="cls-3" d="M13.59,119.46c.2.11.41.2.62.31l-.08-.06C14,119.63,13.76,119.55,13.59,119.46Z"/><path class="cls-2" d="M31.83,73.72a2.78,2.78,0,0,1,.62.36c1.5,1.17,2.22,4.15,1.63,7.13a9.18,9.18,0,0,1-.83,2.42,19.22,19.22,0,0,1,0,2.56,9.36,9.36,0,0,0,2.09-4.49c.79-4-.4-8-2.66-8.88a2.73,2.73,0,0,0-2.65.39,5.48,5.48,0,0,0-1.39,1.44,3,3,0,0,1,.59-.26A2.47,2.47,0,0,1,31.83,73.72Z"/><path class="cls-7" d="M32.45,74.08a2.78,2.78,0,0,0-.62-.36,2.47,2.47,0,0,0-2.65.67,2.05,2.05,0,0,1,1.25,0A2.29,2.29,0,0,1,32.45,74.08Z"/><path class="cls-3" d="M32.45,74.08a2.29,2.29,0,0,0-2,.29,2.69,2.69,0,0,1,.91.53c.95.83,1.78,5.17,1.91,8.73a9.18,9.18,0,0,0,.83-2.42C34.67,78.23,34,75.25,32.45,74.08Z"/><path class="cls-4" d="M29.61,98.11a3.28,3.28,0,0,1,.82.2,4,4,0,0,1,1.38,1c.12-1.34.24-2.66.37-3.93.34-3.51.67-6.61,1-8.69,0-.15,0-.31.05-.47a19.22,19.22,0,0,0,0-2.56c-.13-3.56-1-7.9-1.91-8.73a2.69,2.69,0,0,0-.91-.53,2.05,2.05,0,0,0-1.25,0,3,3,0,0,0-.59.26c-1.45.82-2.85,2.84-4.09,4.59-2.49,3.53-5.35,11.39-7.76,19,2.45,1.66,6.16,2.56,8.56,3C26.14,99.23,27.82,97.91,29.61,98.11Z"/><path class="cls-4" d="M14.21,119.77a16.39,16.39,0,0,0,4.54,2,16.94,16.94,0,0,0,6.68.3l.43-.06a24.44,24.44,0,0,0,3.36-.74c.51-.15.82-.26.82-.26s.4-5.52,1-12.28a3.59,3.59,0,0,1-2.51.77h0c-1.94-.21-3.39-2.15-3.65-4.58a27.3,27.3,0,0,1-9.18-3c-2.44,8.1-4.19,15.07-4.19,15.07A6.21,6.21,0,0,0,13.17,119a9.24,9.24,0,0,0,1,.7Z"/><path class="cls-3" d="M24.79,103.31a7.72,7.72,0,0,1,.51-2c-2.4-.44-6.11-1.34-8.56-3l0,0-1.08,3.62h0a27.3,27.3,0,0,0,9.18,3A8.11,8.11,0,0,1,24.79,103.31Z"/><path class="cls-3" d="M25.65,103.52c.32-3.12,2.45-5.44,4.78-5.21a3.28,3.28,0,0,0-.82-.2c-1.79-.2-3.47,1.12-4.31,3.16a7.72,7.72,0,0,0-.51,2,8.11,8.11,0,0,0,0,1.56c.26,2.43,1.71,4.37,3.65,4.58h0C26.6,108.72,25.37,106.26,25.65,103.52Z"/><path class="cls-2" d="M33.26,104.26a6.4,6.4,0,0,0-1.45-5,4,4,0,0,0-1.38-1c-2.33-.23-4.46,2.09-4.78,5.21-.28,2.74,1,5.2,2.84,5.94a3.59,3.59,0,0,0,2.51-.77A6.36,6.36,0,0,0,33.26,104.26Z"/><path class="cls-2" d="M69.46,72.82C67.2,73.73,66,77.7,66.8,81.7c.61,3.1,2.25,5.29,4,5.69a2.41,2.41,0,0,0,1.52-.11,2.3,2.3,0,0,0,.42-.2,9.46,9.46,0,0,1-.82-1c-1.68.05-3.34-1.93-3.92-4.86s.13-6,1.63-7.13a2.78,2.78,0,0,1,.62-.36c1.12-.45,2.31.11,3.24,1.33l.29.07a5.58,5.58,0,0,0-2-2.08A2.66,2.66,0,0,0,69.46,72.82Z"/><path class="cls-7" d="M72.21,74.81a10.73,10.73,0,0,1,1.29.24c-.93-1.22-2.12-1.78-3.24-1.33a2.78,2.78,0,0,0-.62.36A2.48,2.48,0,0,1,72.21,74.81Z"/><path class="cls-3" d="M68.61,76.69c.41-1.75,1.84-2.11,3.6-1.88a2.48,2.48,0,0,0-2.57-.73c-1.5,1.17-2.22,4.15-1.63,7.13s2.24,4.91,3.92,4.86C69.8,83.1,68.25,78.21,68.61,76.69Z"/><path class="cls-4" d="M72.21,74.81c-1.76-.23-3.19.13-3.6,1.88-.36,1.52,1.19,6.41,3.32,9.38a9.46,9.46,0,0,0,.82,1l.06.07c1.89,2,6,5.66,10.78,9.72,0-.13,0-.25,0-.38A3.59,3.59,0,0,1,85.18,94c-.59-1.26-1.09-2.7-1.93-4.29,1.34-2.46,2.69-4.86,4-7a9.61,9.61,0,0,0-.34-1.07h0a49.24,49.24,0,0,0-9.7-5.38c-1.1-.38-2.28-.8-3.41-1.09l-.29-.07A10.73,10.73,0,0,0,72.21,74.81Z"/><path class="cls-2" d="M112.13,72.37l.11,0Z"/><path class="cls-2" d="M112.37,72.47l.12.08Z"/><path class="cls-2" d="M108.87,75.69a.88.88,0,0,0-.06.1,9.84,9.84,0,0,1,1.31,3.39,2.94,2.94,0,0,1-.34,1.32,41.55,41.55,0,0,0,4.14-3.35,3.77,3.77,0,0,0,.1-2.65,4.5,4.5,0,0,0-1.52-1.94C111.25,73.59,109.22,75.28,108.87,75.69Z"/><path class="cls-3" d="M108.39,75.11c.14.23.29.45.42.68a.88.88,0,0,1,.06-.1c.35-.41,2.38-2.1,3.63-3.13h0l-.12-.08-.13-.07-.11,0-.06,0a9,9,0,0,0-1.8.84C109.57,73.93,108.86,74.66,108.39,75.11Z"/><path class="cls-2" d="M102.26,70.23c.46-.68.83-1.36,1.07-1.71.44-.61,3.25-3.35,4.48-4.54a4.65,4.65,0,0,0-3-1c-.76,0-3.35,2.79-3.82,3.88-.27.61-.76,1.94-1.15,3a1.67,1.67,0,0,1,.59-.21A6,6,0,0,1,102.26,70.23Z"/><path class="cls-2" d="M107.82,64l.16.19Z"/><path class="cls-2" d="M106.3,67a7,7,0,0,0-.7,1.31h0a7,7,0,0,1,.7-1.31c.88-1.21,1.9-2.18,1.86-2.43a.9.9,0,0,0-.11-.28.9.9,0,0,1,.11.28C108.2,64.78,107.18,65.75,106.3,67Z"/><path class="cls-3" d="M103.33,68.52c-.24.35-.61,1-1.07,1.71.32.13.66.28,1,.44a10.13,10.13,0,0,1,.93-1.31c.18-.17.77-.62,1.41-1.09a7,7,0,0,1,.7-1.31c.88-1.21,1.9-2.18,1.86-2.43a.9.9,0,0,0-.11-.28l-.07-.08-.16-.19h0C106.58,65.17,103.77,67.91,103.33,68.52Z"/><path class="cls-2" d="M104.19,69.36a10.13,10.13,0,0,0-.93,1.31,14.55,14.55,0,0,1,2.58,1.54,11.8,11.8,0,0,1,2.55,2.9c.47-.45,1.18-1.18,1.88-1.92,1.12-1.19,2.2-2.4,2.26-2.54.27-.71-.66-2.51-1.39-3.07s-3.34-.66-3.63-.59a17,17,0,0,0-1.91,1.28h0C105,68.74,104.37,69.19,104.19,69.36Z"/><path class="cls-2" d="M96.34,72.73,97,73a16.59,16.59,0,0,1,4.56,1.91,17.08,17.08,0,0,1,4.86,4.61c-.07-.13-.13-.26-.2-.38A18.17,18.17,0,0,0,103.92,76a11.15,11.15,0,0,0-3.15-2.24,28.33,28.33,0,0,0-3.58-1.53,23.55,23.55,0,0,1,3.61,1.47A11.28,11.28,0,0,1,104,75.9a17.77,17.77,0,0,1,2.27,3.17c.14.25.27.51.4.76a23.66,23.66,0,0,1,1.79,2.93,16.22,16.22,0,0,0,1.33-2.26,2.94,2.94,0,0,0,.34-1.32,9.84,9.84,0,0,0-1.31-3.39c-.13-.23-.28-.45-.42-.68a11.8,11.8,0,0,0-2.55-2.9,14.55,14.55,0,0,0-2.58-1.54c-.34-.16-.68-.31-1-.44a6,6,0,0,0-1.81-.49,1.67,1.67,0,0,0-.59.21,35.42,35.42,0,0,0-4.14,2.79c.36,0,.75.11,1.17.2C96.71,72.87,96.53,72.79,96.34,72.73Zm6.75-1.39a10.48,10.48,0,0,1,2.85,2,16.15,16.15,0,0,1,2,2.84,24.6,24.6,0,0,1,1.53,3.14,32.41,32.41,0,0,0-1.58-3.11,16.1,16.1,0,0,0-2-2.8,10,10,0,0,0-2.81-2A26.69,26.69,0,0,0,99.85,70,22.18,22.18,0,0,1,103.09,71.34Zm-.62.58a10.41,10.41,0,0,1,3,2.08,16.29,16.29,0,0,1,2.12,3,26.66,26.66,0,0,1,1.59,3.27A30.83,30.83,0,0,0,107.5,77a15.72,15.72,0,0,0-2.13-2.92,10.34,10.34,0,0,0-2.93-2.1,27.21,27.21,0,0,0-3.34-1.42A22.25,22.25,0,0,1,102.47,71.92Zm-.58.54A10.85,10.85,0,0,1,105,74.62a16.63,16.63,0,0,1,2.19,3.07,27.06,27.06,0,0,1,1.65,3.38,31.9,31.9,0,0,0-1.7-3.35,17,17,0,0,0-2.21-3,11.16,11.16,0,0,0-3-2.17A28.51,28.51,0,0,0,98.4,71,23,23,0,0,1,101.89,72.46Zm-.48.62a10.85,10.85,0,0,1,3.08,2.16,16.9,16.9,0,0,1,2.19,3.06,25.26,25.26,0,0,1,1.65,3.39,33.06,33.06,0,0,0-1.7-3.36,17.29,17.29,0,0,0-2.21-3,10.61,10.61,0,0,0-3-2.17,26.42,26.42,0,0,0-3.46-1.47A23,23,0,0,1,101.41,73.08Z"/><path class="cls-3" d="M103.06,71.4a10,10,0,0,1,2.81,2,16.1,16.1,0,0,1,2,2.8,32.41,32.41,0,0,1,1.58,3.11A24.6,24.6,0,0,0,108,76.18a16.15,16.15,0,0,0-2-2.84,10.48,10.48,0,0,0-2.85-2A22.18,22.18,0,0,0,99.85,70,26.69,26.69,0,0,1,103.06,71.4Z"/><path class="cls-3" d="M102.44,72a10.34,10.34,0,0,1,2.93,2.1A15.72,15.72,0,0,1,107.5,77a30.83,30.83,0,0,1,1.65,3.24A26.66,26.66,0,0,0,107.56,77a16.29,16.29,0,0,0-2.12-3,10.41,10.41,0,0,0-3-2.08,22.25,22.25,0,0,0-3.37-1.37A27.21,27.21,0,0,1,102.44,72Z"/><path class="cls-3" d="M101.86,72.51a11.16,11.16,0,0,1,3,2.17,17,17,0,0,1,2.21,3,31.9,31.9,0,0,1,1.7,3.35,27.06,27.06,0,0,0-1.65-3.38A16.63,16.63,0,0,0,105,74.62a10.85,10.85,0,0,0-3.08-2.16A23,23,0,0,0,98.4,71,28.51,28.51,0,0,1,101.86,72.51Z"/><path class="cls-3" d="M104.42,75.3a17.29,17.29,0,0,1,2.21,3,33.06,33.06,0,0,1,1.7,3.36,25.26,25.26,0,0,0-1.65-3.39,16.9,16.9,0,0,0-2.19-3.06,10.85,10.85,0,0,0-3.08-2.16,23,23,0,0,0-3.49-1.42,26.42,26.42,0,0,1,3.46,1.47A10.61,10.61,0,0,1,104.42,75.3Z"/><path class="cls-3" d="M104,75.9a11.28,11.28,0,0,0-3.19-2.24,23.55,23.55,0,0,0-3.61-1.47,28.33,28.33,0,0,1,3.58,1.53A11.15,11.15,0,0,1,103.92,76a18.17,18.17,0,0,1,2.29,3.14c.07.12.13.25.2.38l.25.35c-.13-.25-.26-.51-.4-.76A17.77,17.77,0,0,0,104,75.9Z"/><path class="cls-3" d="M96.89,72.94l.1,0-.65-.23C96.53,72.79,96.71,72.87,96.89,72.94Z"/><path class="cls-4" d="M91.2,93.31c2.36.79,4,2.67,3.72,4.63v0a3.14,3.14,0,0,1-.17.67,85.51,85.51,0,0,0,14.09-15.12s-.14-.29-.39-.77a23.66,23.66,0,0,0-1.79-2.93l-.25-.35a17.08,17.08,0,0,0-4.86-4.61A16.59,16.59,0,0,0,97,73l-.1,0c-.42-.09-.81-.16-1.17-.2a6.16,6.16,0,0,0-2.69.18s-2.25,3.6-5.17,8.61l.2,0A26.73,26.73,0,0,1,91.2,93.31Z"/><path class="cls-4" d="M87.21,82.66c-1.27,2.19-2.62,4.59-4,7,.84,1.59,1.34,3,1.93,4.29a5.87,5.87,0,0,1,2.5-1C87.87,90.26,88,85.74,87.21,82.66Z"/><path class="cls-3" d="M87.21,82.66c.79,3.08.66,7.6.47,10.35a7.66,7.66,0,0,1,2.09,0,8.27,8.27,0,0,1,1.43.33,26.73,26.73,0,0,0-3.14-11.8l-.2,0-1,.06h0A9.61,9.61,0,0,1,87.21,82.66Z"/><path class="cls-3" d="M89.78,93.86c2.74.36,4.85,2.11,5.14,4.12v0c.23-2-1.36-3.84-3.72-4.63A8.27,8.27,0,0,0,89.77,93a7.66,7.66,0,0,0-2.09,0,5.87,5.87,0,0,0-2.5,1,3.59,3.59,0,0,0-1.57,2.49c0,.13,0,.25,0,.38a2.49,2.49,0,0,0,0,.47C83.92,95,86.67,93.47,89.78,93.86Z"/><path class="cls-2" d="M89.78,93.86c-3.11-.39-5.86,1.16-6.15,3.48.28,2,2.4,3.75,5.14,4.11s5.29-.86,6-2.8a3.14,3.14,0,0,0,.17-.67C94.63,96,92.52,94.22,89.78,93.86Z"/></g></g></svg>