<svg xmlns="http://www.w3.org/2000/svg" viewBox="0 0 137.92 134.5"><defs><style>.cls-1{fill:none;}.cls-2{fill:#ec6e5c;}.cls-3{fill:#263138;}.cls-4{fill:#040000;}.cls-5{fill:#fff;}</style></defs><g id="圖層_2" data-name="圖層 2"><g id="圖層_3" data-name="圖層 3"><path class="cls-1" d="M123.7,125.36a7.21,7.21,0,0,1,1.58-2.73L120,110.23H120l-.1,0A110.56,110.56,0,0,1,113,134.5h16.18a5.72,5.72,0,0,1-.79-.2A7.15,7.15,0,0,1,123.7,125.36Z"/><path class="cls-2" d="M39.08,95.31,25.17,93.86c0,.23,0,.47,0,.72a7.15,7.15,0,0,1-4.83,6.75c5.43,1.45,13.63,2.11,18.33,2.38a9.54,9.54,0,0,1,.37-8.4Zm-6.42.55a23.93,23.93,0,0,1-3.71-.4,27,27,0,0,1,3.73.14,26.19,26.19,0,0,1,3.71.39A24.34,24.34,0,0,1,32.66,95.86Z"/><path class="cls-2" d="M18.05,87.42a7.3,7.3,0,0,1,.94.07L13.06,74a5.82,5.82,0,0,1-7.39,1.48A115.28,115.28,0,0,0,11.28,92.3,7.15,7.15,0,0,1,18.05,87.42Zm-2.57-5.76a27.66,27.66,0,0,1,1.71,3.44,27.4,27.4,0,0,1-2-3.31,29.46,29.46,0,0,1-1.71-3.44A27.4,27.4,0,0,1,15.48,81.66Z"/><path class="cls-3" d="M37.94,99.89a9.53,9.53,0,0,0,8.55,9.47A147.83,147.83,0,0,1,44.63,90.8a9.53,9.53,0,0,0-6.69,9.09Z"/><path class="cls-3" d="M46.49,109.36A9.52,9.52,0,0,1,44.63,90.8v0a9.35,9.35,0,0,0-3.92,2.37,9.21,9.21,0,0,0-1.63,2.17,9.54,9.54,0,0,0-.37,8.4,9.56,9.56,0,0,0,7.78,5.68Z"/><path class="cls-3" d="M25.21,94.58c0-.25,0-.49,0-.72A7.16,7.16,0,0,0,19,87.49a7.3,7.3,0,0,0-.94-.07,7.15,7.15,0,1,0,7.16,7.16Zm-10.68-4a5.2,5.2,0,0,1,2.34-1.25,5.14,5.14,0,0,1,2.65.06,2.65,2.65,0,0,1,1,.47s-.4-.15-1-.29a5.76,5.76,0,0,0-2.55,0,5.65,5.65,0,0,0-2.28,1.14c-.51.42-.75.76-.79.73A2.51,2.51,0,0,1,14.53,90.61Z"/><path class="cls-3" d="M13.06,74a5.79,5.79,0,0,0,1.27-3.64c0-.13,0-.25,0-.38L12.8,71.26,11.06,69.2l2.35-2a5.92,5.92,0,0,0-1.92-1.87v.51a.18.18,0,0,1-.18.18H9a.18.18,0,0,1-.18-.18V64.54l-.31,0H8.22l.27,1.21a.19.19,0,0,1-.14.22l-2.27.5a.17.17,0,0,1-.21-.14l-.24-1a6.17,6.17,0,0,0-.6.39l.52.9a.18.18,0,0,1-.07.25L3.47,68a.18.18,0,0,1-.25-.07v0a5.83,5.83,0,0,0,2.46,7.6A5.82,5.82,0,0,0,13.06,74Z"/><path class="cls-3" d="M12.8,71.26,14.31,70l3.29-2.77a1.28,1.28,0,0,0,.15-1.78l-.11-.13a1.27,1.27,0,0,0-1.78-.15l-2.45,2.07-2.35,2Z"/><path class="cls-3" d="M9,66h2.33a.18.18,0,0,0,.18-.18v-6.1a1.27,1.27,0,0,0-1.26-1.26h-.17A1.26,1.26,0,0,0,8.8,59.76v6.1A.18.18,0,0,0,9,66Z"/><path class="cls-3" d="M6.08,66.46,8.35,66a.19.19,0,0,0,.14-.22l-.27-1.21L7.16,59.79a1.27,1.27,0,0,0-1.51-1l-.16,0a1.26,1.26,0,0,0-1,1.5l1.1,4.9.24,1A.17.17,0,0,0,6.08,66.46Z"/><path class="cls-3" d="M3.47,68l2-1.16a.18.18,0,0,0,.07-.25L5,65.66,2.5,61.28a1.27,1.27,0,0,0-1.73-.46l-.14.08a1.26,1.26,0,0,0-.46,1.72l3,5.26v0A.18.18,0,0,0,3.47,68Z"/><path class="cls-2" d="M122.58,109.33A9.44,9.44,0,0,1,121,110l-.12,0a6.17,6.17,0,0,1-.82.21l5.27,12.4a7.13,7.13,0,0,1,6.67-2.17l-6-14.12A9.53,9.53,0,0,1,122.58,109.33Z"/><path class="cls-2" d="M131.85,134.5h6.07l-1.35-3.19A7.16,7.16,0,0,1,131.85,134.5Z"/><path class="cls-3" d="M120,110.24h0Z"/><path class="cls-3" d="M120.83,110l.12,0Z"/><path class="cls-3" d="M122.57,109.31a9.52,9.52,0,0,0-.65-17.15,160.62,160.62,0,0,1-2.06,18.09A10,10,0,0,0,122.57,109.31Z"/><path class="cls-3" d="M121.92,92.16a9.52,9.52,0,0,1,.65,17.15,10,10,0,0,1-2.71.94h0l.1,0H120a6.17,6.17,0,0,0,.82-.21l.12,0a9.44,9.44,0,0,0,1.63-.66,9.54,9.54,0,0,0-.66-17.2Z"/><path class="cls-3" d="M125.28,122.63a7.13,7.13,0,0,0,3.15,11.67,5.72,5.72,0,0,0,.79.2h2.63a7.16,7.16,0,0,0,4.72-3.19,7.38,7.38,0,0,0,.8-1.73,7.14,7.14,0,0,0-4.73-8.94,5.84,5.84,0,0,0-.69-.18A7.13,7.13,0,0,0,125.28,122.63Z"/><path class="cls-2" d="M54.62,134.16c-.35-.74-.74-1.59-1.12-2.54-.2-.48-.4-1-.61-1.5s-.4-1.07-.61-1.64c-.44-1.13-.81-2.37-1.25-3.66-.8-2.6-1.58-5.48-2.27-8.55s-1.19-6-1.6-8.7-.68-5.13-.84-7.18c-.1-1-.16-2-.21-2.77S46,96.11,46,95.53s0-1,0-1.32v-.35c0-.07,0-.11,0-.12a1.13,1.13,0,0,1,0,.12l0,.34.09,1.32c0,.58.09,1.28.16,2.09s.14,1.74.25,2.76c.19,2,.5,4.47.89,7.16s.94,5.62,1.62,8.68,1.46,5.94,2.24,8.54c.43,1.29.8,2.53,1.23,3.66l.59,1.64c.2.52.4,1,.59,1.5.37.95.75,1.8,1.08,2.55l.18.4H113a110.56,110.56,0,0,0,6.82-24.24h0a160.62,160.62,0,0,0,2.06-18.09v0C122,90.8,122,90,122,90s-34.56,17-77.39,0c0,0,0,.28,0,.8v0a147.83,147.83,0,0,0,1.86,18.56v0a106.85,106.85,0,0,0,7,25.11h1.23Zm27.34-4c-.23,0-.58.05-1,0a13.49,13.49,0,0,1-3.74-.61,15.73,15.73,0,0,1-2.44-1,15.29,15.29,0,0,1-2.53-1.64,13.69,13.69,0,0,1-5.3-12.2,15.83,15.83,0,0,1,.53-3,16.48,16.48,0,0,1,1-2.45,13.77,13.77,0,0,1,2.11-3.15,9.83,9.83,0,0,1,.73-.73,1.61,1.61,0,0,1,.27-.24s-.34.36-.92,1a14.58,14.58,0,0,0-2,3.16,15.61,15.61,0,0,0-.9,2.43,16.1,16.1,0,0,0-.51,2.93,13.67,13.67,0,0,0,5.21,12,16,16,0,0,0,2.48,1.63,15.58,15.58,0,0,0,2.4,1,14,14,0,0,0,3.69.68c.88,0,1.38,0,1.38,0Zm12.55-13.57a13,13,0,1,1-12-13.87A13,13,0,0,1,94.51,116.56ZM62,97.2l.39.07,1.48.28c.64.13,1.42.28,2.34.41s2,.34,3.12.47l1.82.23c.63.08,1.3.12,2,.19,1.37.15,2.83.22,4.37.31,3.09.12,6.49.13,10-.08s6.93-.65,10-1.15c1.52-.28,3-.53,4.3-.84.67-.15,1.33-.28,1.94-.43l1.78-.46c1.14-.27,2.15-.59,3-.84s1.66-.49,2.28-.7l1.43-.46.38-.11.13,0-.12.06-.37.13-1.42.51c-.62.22-1.37.48-2.27.74s-1.89.6-3,.88l-1.78.47c-.62.17-1.27.3-1.94.45-1.34.33-2.79.58-4.31.87a96.8,96.8,0,0,1-10,1.18,97.37,97.37,0,0,1-10.08.05c-1.54-.1-3-.17-4.38-.33-.69-.07-1.35-.12-2-.21l-1.82-.25c-1.17-.14-2.21-.35-3.12-.5s-1.71-.32-2.34-.46l-1.47-.33-.39-.09-.12,0Z"/><path class="cls-4" d="M122,90s-4.43-10-38.69-9.59S44.61,90,44.61,90C87.44,107,122,90,122,90Z"/><path class="cls-3" d="M72.54,73.06a85.42,85.42,0,0,1-10.05-1A3.71,3.71,0,0,0,62,73.91v.5a3.77,3.77,0,0,0,3.78,3.77h31.7a3.77,3.77,0,0,0,3.78-3.77v-.5a3.71,3.71,0,0,0-.31-1.49,72.4,72.4,0,0,1-10.21.79C83.88,73.33,76.16,73.3,72.54,73.06Z"/><path class="cls-3" d="M83,15.65V8.8a4,4,0,0,1-2.74,0v6.85C81.16,15.63,82.08,15.63,83,15.65Z"/><path class="cls-2" d="M120.92,51a25.91,25.91,0,0,1-.44,3.3,22.75,22.75,0,0,1-1.21,4.86l-.21.53a8.29,8.29,0,0,0,2.6.43,8.06,8.06,0,1,0,0-16.11,9.45,9.45,0,0,0-1.07.08l0,.27A32.57,32.57,0,0,1,120.92,51Zm3.53-4.27a4.76,4.76,0,0,1,1.94,1.51c-.06.06-.85-.7-2-1.27a23.63,23.63,0,0,0-2.27-.82A4.59,4.59,0,0,1,124.45,46.73Z"/><path class="cls-2" d="M40.34,59.59a8,8,0,0,0,2.45-.38,6.1,6.1,0,0,1-.26-.62,22.52,22.52,0,0,1-.94-2.87A25.19,25.19,0,0,1,41,52.07a25.69,25.69,0,0,1,0-3.71,21.73,21.73,0,0,1,.42-3,10.51,10.51,0,0,1,.27-1.13,5.38,5.38,0,0,1,.17-.62,7.77,7.77,0,0,0-1.46-.14,8.06,8.06,0,1,0,0,16.11Zm-6.57-9.76a5.84,5.84,0,0,1,1.47-3.15A4.18,4.18,0,0,1,36,46a1,1,0,0,1,.34-.2s-.44.35-1,1A6.3,6.3,0,0,0,34,49.87a6.23,6.23,0,0,0,.5,3.31c.36.8.72,1.22.69,1.25s-.12-.08-.28-.27a5.08,5.08,0,0,1-.58-.89A5.93,5.93,0,0,1,33.77,49.83Z"/><path class="cls-2" d="M41.54,45.4a26.19,26.19,0,0,0-.36,3,28.32,28.32,0,0,0,0,3.66,27.88,27.88,0,0,0,.6,3.62,23.72,23.72,0,0,0,.88,2.87c.07.22.16.43.24.62l.13,0c-1.65-3.9-2.21-8.93-1-15.43l-.14,0c-.05.19-.1.39-.15.63S41.61,45,41.54,45.4Z"/><path class="cls-2" d="M120.62,44.36c0,.43.1.94.15,1.55a41.3,41.3,0,0,1-.08,6.7c0,.58-.13,1.14-.21,1.69a25.91,25.91,0,0,0,.44-3.3A32.57,32.57,0,0,0,120.62,44.36Z"/><path class="cls-2" d="M43.08,59.1C46.6,67.5,55.16,70.7,62.49,72a85.42,85.42,0,0,0,10.05,1c3.62.24,11.34.27,18.16.15a72.4,72.4,0,0,0,10.21-.79c7.75-1.25,13.64-4.23,17.09-10.82a23.54,23.54,0,0,0,1.1-2.51,27.57,27.57,0,0,0,1.32-6.51,49.08,49.08,0,0,0,.16-6.66c0-.85-.08-1.54-.12-2a6.09,6.09,0,0,1,0-.72C118,30,107.22,16.13,83,15.65c-.89,0-1.81,0-2.74,0H80s-32.75-.39-37.94,28v0C40.87,50.17,41.43,55.2,43.08,59.1Zm-.57-8.37a3.67,3.67,0,0,1,.13-1.11c.08,0,0,1.71.3,3.77s1,3.65.87,3.68a3.91,3.91,0,0,1-.47-1,14.17,14.17,0,0,1-.83-5.32ZM71.77,71.09l-.68.06q-.45,0-1.08.06c-.42,0-.91,0-1.44,0A35.72,35.72,0,0,1,64.84,71a40.14,40.14,0,0,1-4.52-.78,41.74,41.74,0,0,1-4.39-1.32,36.75,36.75,0,0,1-3.44-1.46c-.49-.23-.91-.46-1.28-.66s-.69-.38-.94-.53l-.59-.36c-.13-.09-.2-.13-.19-.14a.67.67,0,0,1,.22.09l.61.32c.26.14.58.31,1,.49s.8.4,1.29.62c1,.44,2.13.92,3.44,1.4A44.84,44.84,0,0,0,60.38,70a45.42,45.42,0,0,0,4.48.8c1.4.16,2.66.25,3.71.27.53,0,1,0,1.44,0s.78,0,1.08,0H72A.58.58,0,0,1,71.77,71.09Zm40.88-21.4a9,9,0,0,1-8.89,9.17l-47.58.74a9,9,0,1,1-.28-18.06l47.58-.74A9,9,0,0,1,112.65,49.69ZM81.9,39c7.73,0,14,.06,14,.13s-6.27.14-14,.14-14-.06-14-.14S74.17,39,81.9,39ZM45,38.51a34.37,34.37,0,0,1,3.6-6.35,34.82,34.82,0,0,1,6.08-6.54,34.82,34.82,0,0,1,14.49-7.07,32.08,32.08,0,0,1,4.87-.72c.58,0,1,0,1.34-.06h.46s0,0-.11,0l-.35,0c-.3,0-.75.05-1.33.11a36.89,36.89,0,0,0-4.83.81,35.51,35.51,0,0,0-14.37,7.08,35.58,35.58,0,0,0-9.68,12.76,37.59,37.59,0,0,0-1.71,4.6c-.17.55-.27,1-.36,1.28l-.09.33,0,.12s0,0,0-.12l.07-.34c.07-.3.15-.74.32-1.3A31.55,31.55,0,0,1,45,38.51Z"/><path class="cls-3" d="M47,50.71a9,9,0,0,0,9.17,8.89l47.58-.74a9,9,0,1,0-.28-18.06l-47.58.74A9,9,0,0,0,47,50.71ZM93.6,48.08a2.9,2.9,0,1,1,5.69,1.12,2.9,2.9,0,0,1-5.69-1.12Zm-19.52,1c.09-.47.22-.7.3-.69s.11,1,.74,2.38a6.21,6.21,0,0,0,1.54,2,4.67,4.67,0,0,0,5.62.51,6,6,0,0,0,1.88-1.71c.87-1.21,1-2.23,1.16-2.21s.18.26.18.74A4.57,4.57,0,0,1,85,52.08a6,6,0,0,1-2,2.27,5.5,5.5,0,0,1-7.1-.65,6.09,6.09,0,0,1-1.59-2.6A4.52,4.52,0,0,1,74.08,49.08Zm-13.72-.47A2.9,2.9,0,1,1,62.65,52,2.91,2.91,0,0,1,60.36,48.61Z"/><path class="cls-5" d="M62.65,52a2.9,2.9,0,1,0-2.29-3.4A2.89,2.89,0,0,0,62.65,52Z"/><path class="cls-5" d="M95.89,51.48A2.9,2.9,0,0,0,97,45.79a2.9,2.9,0,1,0-1.12,5.69Z"/><path class="cls-3" d="M82.54,102.69a13,13,0,1,0,12,13.87A13,13,0,0,0,82.54,102.69ZM91,116.3a9.44,9.44,0,1,1-8.73-10.1A9.45,9.45,0,0,1,91,116.3Z"/><path class="cls-5" d="M82.28,106.2A9.44,9.44,0,1,0,91,116.3,9.44,9.44,0,0,0,82.28,106.2Zm4.47,6.2c0,1.76-.11,3.18-.16,4.15a7.38,7.38,0,0,1-.14,1.47,7.27,7.27,0,0,1-1.22.81c-.83.5-2,1.23-3.58,2.11l-.11.06-.1-.06-4.86-2.83-.14-.08v-.16c0-.88,0-1.79,0-2.73,0-.47,0-.94,0-1.43v-1.44h0l.15-.25,4.92-2.72.14-.08.13.08,4.8,2.93.1.07Z"/><path class="cls-5" d="M86.32,112.52l-4.61-2.69-4.62,2.59v1.3l0,1.43c0,.89,0,1.74-.05,2.57l4.56,2.79c1.45-.78,2.64-1.4,3.49-1.83a9.15,9.15,0,0,1,1.41-.66,11.17,11.17,0,0,1-.08-1.56C86.34,115.51,86.32,114.16,86.32,112.52Z"/><path class="cls-2" d="M81.85,109.28l-.13-.08-.14.08L76.66,112l-.15.25h0v1.44c0,.49,0,1,0,1.43,0,.94,0,1.85,0,2.73V118l.14.08,4.86,2.83.1.06.11-.06c1.53-.88,2.75-1.61,3.58-2.11a7.27,7.27,0,0,0,1.22-.81,9.15,9.15,0,0,0-1.41.66c-.85.43-2,1-3.49,1.83L77,117.72c0-.83,0-1.68.05-2.57l0-1.43v-1.3l4.62-2.59,4.61,2.69c0,1.64,0,3,.05,3.94a11.17,11.17,0,0,0,.08,1.56,7.38,7.38,0,0,0,.14-1.47c0-1,.11-2.39.16-4.15v-.12l-.1-.07Z"/><path class="cls-2" d="M83,8.8a4.52,4.52,0,1,0-2.74,0A4,4,0,0,0,83,8.8ZM78,5.51a7.31,7.31,0,0,0,.53,1.08s-.11-.07-.25-.23a2.75,2.75,0,0,1-.45-.79,3.36,3.36,0,0,1,.26-2.95,3.36,3.36,0,0,1,2.57-1.47,2.83,2.83,0,0,1,.91.09c.21.06.31.11.31.13a6.63,6.63,0,0,0-1.2,0,3.32,3.32,0,0,0-2.36,1.43A3.31,3.31,0,0,0,78,5.51Z"/><path class="cls-5" d="M75.83,53.7a5.5,5.5,0,0,0,7.1.65,6,6,0,0,0,2-2.27,4.57,4.57,0,0,0,.53-1.95c0-.48-.09-.74-.18-.74s-.29,1-1.16,2.21a6,6,0,0,1-1.88,1.71,4.67,4.67,0,0,1-5.62-.51,6.21,6.21,0,0,1-1.54-2c-.63-1.34-.52-2.36-.74-2.38s-.21.22-.3.69a4.52,4.52,0,0,0,.16,2A6.09,6.09,0,0,0,75.83,53.7Z"/><path class="cls-3" d="M120.46,43.9c0,.48.08,1.17.12,2a49.08,49.08,0,0,1-.16,6.66,27.57,27.57,0,0,1-1.32,6.51A23.54,23.54,0,0,1,118,61.6v0a3.9,3.9,0,0,0,.42-.62,14.5,14.5,0,0,0,.65-1.31l.21-.53a22.75,22.75,0,0,0,1.21-4.86c.08-.55.16-1.11.21-1.69a41.3,41.3,0,0,0,.08-6.7c0-.61-.1-1.12-.15-1.55l0-.27,0-.2a3.31,3.31,0,0,0-.13-.73v0A6.09,6.09,0,0,0,120.46,43.9Z"/><path class="cls-3" d="M41.36,45.37a21.73,21.73,0,0,0-.42,3,25.69,25.69,0,0,0,0,3.71,25.19,25.19,0,0,0,.62,3.65,22.52,22.52,0,0,0,.94,2.87,6.1,6.1,0,0,0,.26.62q.1.24.21.45a7,7,0,0,0,.39.78,3.66,3.66,0,0,0,.38.64,5.7,5.7,0,0,0-.29-.68c-.1-.22-.22-.49-.35-.8-.05-.14-.12-.29-.18-.45s-.17-.4-.24-.62a23.72,23.72,0,0,1-.88-2.87,27.88,27.88,0,0,1-.6-3.62,28.32,28.32,0,0,1,0-3.66,26.19,26.19,0,0,1,.36-3c.07-.42.16-.79.23-1.13s.1-.44.15-.63l.06-.21a5.38,5.38,0,0,0,.16-.73,3.4,3.4,0,0,0-.26.7c0,.07-.05.15-.08.22a5.38,5.38,0,0,0-.17.62A10.51,10.51,0,0,0,41.36,45.37Z"/><path class="cls-5" d="M43.06,44.45l-.07.34c0,.08,0,.12,0,.12l0-.12.09-.33c.09-.29.19-.73.36-1.28a37.59,37.59,0,0,1,1.71-4.6,35.58,35.58,0,0,1,9.68-12.76,35.51,35.51,0,0,1,14.37-7.08,36.89,36.89,0,0,1,4.83-.81c.58-.06,1-.07,1.33-.11l.35,0c.07,0,.11,0,.11,0h-.46c-.31,0-.76,0-1.34.06a32.08,32.08,0,0,0-4.87.72A34.29,34.29,0,0,0,48.61,32.16,34.37,34.37,0,0,0,45,38.51a31.55,31.55,0,0,0-1.63,4.64C43.21,43.71,43.13,44.15,43.06,44.45Z"/><path class="cls-5" d="M43.81,57.07c.08,0-.56-1.62-.87-3.68s-.22-3.77-.3-3.77a3.67,3.67,0,0,0-.13,1.11,14.17,14.17,0,0,0,.83,5.32A3.91,3.91,0,0,0,43.81,57.07Z"/><path class="cls-5" d="M35.22,54.43s-.33-.45-.69-1.25a6.23,6.23,0,0,1-.5-3.31,6.3,6.3,0,0,1,1.35-3.07c.55-.68,1-1,1-1A1,1,0,0,0,36,46a4.18,4.18,0,0,0-.79.71,5.84,5.84,0,0,0-1.47,3.15,5.93,5.93,0,0,0,.59,3.44,5.08,5.08,0,0,0,.58.89C35.1,54.35,35.2,54.44,35.22,54.43Z"/><path class="cls-5" d="M80.7,1.34a6.63,6.63,0,0,1,1.2,0s-.1-.07-.31-.13a2.83,2.83,0,0,0-.91-.09,3.36,3.36,0,0,0-2.57,1.47,3.36,3.36,0,0,0-.26,3,2.75,2.75,0,0,0,.45.79c.14.16.24.24.25.23A7.31,7.31,0,0,1,78,5.51a3.31,3.31,0,0,1,.32-2.74A3.32,3.32,0,0,1,80.7,1.34Z"/><path class="cls-5" d="M126.39,48.24a4.76,4.76,0,0,0-1.94-1.51,4.59,4.59,0,0,0-2.38-.58,23.63,23.63,0,0,1,2.27.82C125.54,47.54,126.33,48.3,126.39,48.24Z"/><path class="cls-5" d="M53.67,131.55c-.19-.48-.39-1-.59-1.5l-.59-1.64c-.43-1.13-.8-2.37-1.23-3.66-.78-2.6-1.56-5.48-2.24-8.54s-1.2-6-1.62-8.68-.7-5.11-.89-7.16c-.11-1-.19-1.94-.25-2.76s-.12-1.51-.16-2.09L46,94.2l0-.34a1.13,1.13,0,0,0,0-.12s0,.05,0,.12v.35c0,.32,0,.76,0,1.32s0,1.28.11,2.09.11,1.75.21,2.77c.16,2,.46,4.48.84,7.18s.92,5.63,1.6,8.7,1.47,6,2.27,8.55c.44,1.29.81,2.53,1.25,3.66.21.57.41,1.12.61,1.64s.41,1,.61,1.5c.38.95.77,1.8,1.12,2.54l.15.34h.16l-.18-.4C54.42,133.35,54,132.5,53.67,131.55Z"/><path class="cls-5" d="M29,95.46a23.93,23.93,0,0,0,3.71.4,24.34,24.34,0,0,0,3.73.13,26.19,26.19,0,0,0-3.71-.39A27,27,0,0,0,29,95.46Z"/><path class="cls-5" d="M17.19,85.1a27.66,27.66,0,0,0-1.71-3.44,27.4,27.4,0,0,0-2-3.31,29.46,29.46,0,0,0,1.71,3.44A27.4,27.4,0,0,0,17.19,85.1Z"/><path class="cls-5" d="M77.25,129.37a15.58,15.58,0,0,1-2.4-1,16,16,0,0,1-2.48-1.63,13.67,13.67,0,0,1-5.21-12,16.1,16.1,0,0,1,.51-2.93,15.61,15.61,0,0,1,.9-2.43,14.58,14.58,0,0,1,2-3.16c.58-.68.94-1,.92-1a1.61,1.61,0,0,0-.27.24,9.83,9.83,0,0,0-.73.73,13.77,13.77,0,0,0-2.11,3.15,16.48,16.48,0,0,0-1,2.45,15.83,15.83,0,0,0-.53,3,13.69,13.69,0,0,0,5.3,12.2,15.29,15.29,0,0,0,2.53,1.64,15.73,15.73,0,0,0,2.44,1,13.49,13.49,0,0,0,3.74.61c.45,0,.8,0,1,0l.36,0s-.5,0-1.38,0A14,14,0,0,1,77.25,129.37Z"/><path class="cls-5" d="M14.65,90.76a5.65,5.65,0,0,1,2.28-1.14,5.76,5.76,0,0,1,2.55,0c.64.14,1,.33,1,.29a2.65,2.65,0,0,0-1-.47,5.14,5.14,0,0,0-2.65-.06,5.2,5.2,0,0,0-2.34,1.25,2.51,2.51,0,0,0-.67.88S14.14,91.18,14.65,90.76Z"/><path class="cls-5" d="M81.9,39.27c7.73,0,14-.06,14-.14S89.63,39,81.9,39s-14,.06-14,.13S74.17,39.27,81.9,39.27Z"/><path class="cls-5" d="M71.09,71.05c-.3,0-.66,0-1.08,0s-.91,0-1.44,0c-1,0-2.31-.11-3.71-.27a45.42,45.42,0,0,1-4.48-.8A44.84,44.84,0,0,1,56,68.67c-1.31-.48-2.48-1-3.44-1.4-.49-.22-.91-.44-1.29-.62s-.7-.35-1-.49l-.61-.32a.67.67,0,0,0-.22-.09s.06,0,.19.14l.59.36c.25.15.56.33.94.53s.79.43,1.28.66a36.75,36.75,0,0,0,3.44,1.46,41.74,41.74,0,0,0,4.39,1.32,40.14,40.14,0,0,0,4.52.78,35.72,35.72,0,0,0,3.73.22c.53,0,1,0,1.44,0s.78,0,1.08-.06l.68-.06a.58.58,0,0,0,.24,0h-.92Z"/><path class="cls-5" d="M62.33,97.32l1.47.33c.63.14,1.42.31,2.34.46s2,.36,3.12.5l1.82.25c.63.09,1.29.14,2,.21,1.37.16,2.84.23,4.38.33a97.37,97.37,0,0,0,10.08-.05,96.8,96.8,0,0,0,10-1.18c1.52-.29,3-.54,4.31-.87.67-.15,1.32-.28,1.94-.45l1.78-.47c1.14-.28,2.14-.61,3-.88s1.65-.52,2.27-.74l1.42-.51.37-.13.12-.06-.13,0-.38.11-1.43.46c-.62.21-1.38.45-2.28.7s-1.9.57-3,.84l-1.78.46c-.61.15-1.27.28-1.94.43-1.33.31-2.78.56-4.3.84-3,.5-6.42.92-10,1.15s-7,.2-10,.08c-1.54-.09-3-.16-4.37-.31-.68-.07-1.35-.11-2-.19l-1.82-.23c-1.16-.13-2.2-.33-3.12-.47s-1.7-.28-2.34-.41l-1.48-.28L62,97.2h-.13l.12,0Z"/></g></g></svg>