<svg xmlns="http://www.w3.org/2000/svg" viewBox="0 0 123.92 125.13"><defs><style>.cls-1{fill:none;}.cls-2{fill:#fff;}.cls-3{fill:#c9dbdf;}.cls-4{fill:#c9dbe0;}.cls-5{fill:#2f333e;}.cls-6{fill:#2f333f;}.cls-7{fill:#2e3340;}.cls-8{fill:#2d333f;}.cls-9{fill:#3c3b40;}.cls-10{fill:#2f323f;}.cls-11{fill:#2f3340;}.cls-12{fill:#2f343f;}.cls-13{fill:#303543;}.cls-14{fill:#3b3c40;}.cls-15{fill:#262729;}.cls-16{fill:#3b3c3f;}.cls-17{fill:#3c3d40;}.cls-18{fill:#3b3b3f;}.cls-19{fill:#eade56;}.cls-20{fill:#3d3f3e;}.cls-21{fill:#cfd176;}.cls-22{fill:#3d3f3c;}.cls-23{fill:#dfda61;}.cls-24{fill:#434424;}.cls-25{fill:#494723;}.cls-26{fill:#494425;}.cls-27{fill:#e7d645;}.cls-28{fill:#dfc738;}.cls-29{fill:#3f351c;}.cls-30{fill:#434020;}.cls-31{fill:#444321;}.cls-32{fill:#f0de46;}</style></defs><g id="圖層_2" data-name="圖層 2"><g id="圖層_3" data-name="圖層 3"><path class="cls-1" d="M116.41,124.65a.64.64,0,0,0-.7.48H117A.58.58,0,0,0,116.41,124.65Z"/><path class="cls-1" d="M120.79,123.17c0-.27,0-.62-.36-.64s-.49.31-.5.58c0,.67,0,1.35,0,2h.92s0,0,0-.07A14.87,14.87,0,0,1,120.79,123.17Z"/><path class="cls-1" d="M7.51,124.57c-.41,0-.46.27-.49.56H8.18A.77.77,0,0,0,7.51,124.57Z"/><path class="cls-1" d="M35.59,114.9c-2.28-.14-2.63-.51-2.64-2.82v-29c0-.8-.05-1.6-.07-2.4h0a30.2,30.2,0,0,0-7.37,4.94c-.42.35-.73.78-.45,1.33,1,2-.14,3.69-.8,5.45-.58,3.66-1.15,7.33-1.76,11a6.08,6.08,0,0,1-.63,1.38h0c.76,1.7.16,3.29-.36,4.89.4,1.21-.12,2.36-.27,3.53a10.79,10.79,0,0,1,4.45,8.26,2,2,0,0,1-1.59,2.19,3.12,3.12,0,0,1-3.22-1.15c-1-1.09-1-2.65-1.77-3.87a27.68,27.68,0,0,1-3.89,2.81h0a10.36,10.36,0,0,0-1.44,3.7h21.9c0-.2,0-.4,0-.63C35.64,121.3,35.61,118.1,35.59,114.9Z"/><path class="cls-1" d="M104.66,118.27h0a11.14,11.14,0,0,1-1.35,3.84c-1,1.45-2.6,2-3.82,1.38-1.49-.8-1.54-2.15-1.17-3.56a13,13,0,0,1,4.21-6.83c0-1.17-.55-2.29-.29-3.48h0a12.09,12.09,0,0,1-.44-5.11h0c-.68-1.25-.57-2.66-.79-4-.45-2.7-.87-5.4-1.31-8.11-.79-1.74-1.87-3.44-.85-5.45.38-.75-.19-1-.59-1.41a35.46,35.46,0,0,0-7-4.85h0l-.06,29.19c0,.86,0,1.72,0,2.58,0,2.06-.3,2.32-2.42,2.42h0c-.68,1.54-.26,3.16-.32,4.74-.08,1.84-.05,3.68,0,5.52h21.72a13.5,13.5,0,0,0-1.37-3.72A13.59,13.59,0,0,1,104.66,118.27Z"/><path class="cls-1" d="M3.5,122.51c-.7,0-.43.68-.42,1.08a13.19,13.19,0,0,1,0,1.54h.87c0-.5,0-1,.05-1.5S4.08,122.52,3.5,122.51Z"/><path class="cls-2" d="M23.2,52.16h0a8.29,8.29,0,0,0,3.71,5.35,31.68,31.68,0,0,0,5.83,3.25C38,63,43.52,64.12,49.08,65.17a107.25,107.25,0,0,0,21.86.69c2.28-.2,4.54-.49,6.81-.73h0c2.06-.44,4.14-.79,6.17-1.32,6.23-1.63,12.16-3.81,16.16-9.31,2-8.08,1-16.14-.19-24.21-.14-1-.27-2-.41-3.06h0c-.23-1.06-.38-2.15-.7-3.19C96.46,16.26,91,11.18,84,7.66,72.26,1.75,59.92,1,47.42,4.79,37.11,7.92,28.83,13.66,25.33,24.57c-.6,3.65-1.23,7.29-1.79,11C22.69,41.05,22.2,46.59,23.2,52.16ZM33.81,27.58c1.38-5,5-8.55,9.4-10.95,13.16-7.13,26.28-6.87,39.18.8a5.48,5.48,0,0,1,.8.64c4.26,3.16,7.14,7.17,8,12.52A111.61,111.61,0,0,1,92.66,46.5c.09,5.37-2.45,8.71-7.12,10.84a44.43,44.43,0,0,1-14.09,3.57c-10.26,1-20.38.41-30.22-2.93a15.34,15.34,0,0,1-4.33-2c-3.79-1.49-5.58-4.33-5.66-8.35A69.52,69.52,0,0,1,33.81,27.58Z"/><path class="cls-2" d="M32.88,80.68c0,.8.07,1.6.07,2.4v29c0,2.31.36,2.68,2.64,2.82l41.8,0c3.79,0,7.57,0,11.36,0h0c2.12-.1,2.38-.36,2.42-2.42,0-.86,0-1.72,0-2.58l.06-29.19h0l0-8.18h0c-.12-3.55-.12-3.56-3.73-3.55S80.46,69,77,69Q56.73,69,36.49,69c-3.34,0-3.39,0-3.61,3.27h0v8.46ZM46.3,76.23c4.71,0,9.42,0,14.13,0,5.69,0,11.38,0,17.06,0,3.07,0,4.05,1,4.05,4,0,2.36,0,4.71,0,7.07a2.56,2.56,0,0,1-2.11,2.87c-.29.35-.67.27-1,.2l-.78.09h0l-14.39-.06h-.37a2.78,2.78,0,0,1-1.8.1l-13.33-.09h-.34l-.74,0c-3,0-4-.94-4-4,0-2.12,0-4.25,0-6.37C42.59,77.4,43.64,76.26,46.3,76.23Zm-4,19.36c0,.77,0,1.53.07,2.29a2.28,2.28,0,0,0,0-.74c-.1-.49,0-1-.06-1.54.47-2.2,1.35-2.88,3.92-2.89,8.82,0,17.64,0,26.46,0,1.71,0,3.43,0,5.15,0,2.47.08,3.39,1.06,3.4,3.49,0,1,0,2.06,0,3.09h0a2,2,0,0,1,0,1.58h0c0,.67,0,1.35,0,2,0,2.93-1,4-3.93,4-.45,0-.9,0-1.34,0l-25.5.06c-.74,0-1.49,0-2.23,0h0l-.48-.1h0c-.46,0-.91.06-1.37.07-2.88.06-4.06-1.1-4-4,0-.52,0-1,0-1.55,0-.69,0-1.39,0-2.09a2.68,2.68,0,0,1,0-1C42.33,97.37,42.32,96.48,42.32,95.59Z"/><path class="cls-2" d="M48.12,102.05l.08.34.11-.31h0C48.22,102.09,48.18,102.06,48.12,102.05Z"/><path class="cls-2" d="M57.33,100c-.07.07-.12.14-.18.21a1.27,1.27,0,0,1,.23-.08Z"/><path class="cls-2" d="M66.47,98.41a1.3,1.3,0,0,1-.08.17h.12Z"/><path class="cls-2" d="M77.11,106.44l-.13,0h-.09l.18.29Z"/><path class="cls-3" d="M88.43,119.61c.06-1.58-.36-3.2.32-4.74h0c-3.79,0-7.57,0-11.36,0l-41.8,0c0,3.2,0,6.4.07,9.6,0,.23,0,.43,0,.63H88.4C88.38,123.29,88.35,121.45,88.43,119.61Z"/><path class="cls-2" d="M99.7,92.39c.44,2.71.86,5.41,1.31,8.11.22,1.35.11,2.76.79,4h0c5.22,6.16,11.88,7,19.26,5.31.23,0,.44-.12.66-.18h0a3.41,3.41,0,0,0-.27-1.84,78.91,78.91,0,0,0-8.4-19.11c-1.41-2.32-2.63-4.82-4.75-6.65C104.14,84.41,101,87.62,99.7,92.39Z"/><path class="cls-2" d="M19.15,107.37a12.9,12.9,0,0,0,2.72-2.6h0a6.08,6.08,0,0,0,.63-1.38c.61-3.66,1.18-7.33,1.76-11a17.2,17.2,0,0,0-8.62-10.32h0c-.7.15-1,.76-1.32,1.27A79.61,79.61,0,0,0,4,103.24c-.73,2.09-1.74,4.12-1.72,6.42h0C8.2,111.27,13.91,111.08,19.15,107.37Z"/><path class="cls-3" d="M17.3,42.69c0,2.22,0,4.45.05,6.67s.61,2.69,2.78,2.73c1,0,2.05,0,3.07.07h0c-1-5.57-.51-11.11.34-16.64.56-3.66,1.19-7.3,1.79-11-3-.13-2.81.6-2.82-2.89,0-3.26,0-6.53,0-9.8,0-.81-.06-1.49-1-1.74l-1-.06c0,4.28,0,8.57,0,12.85,0,.94,0,1.6-1.3,1.7s-1.89,1-1.86,2.41c.05,2.28,0,4.57,0,6.85,0,2.93,0,5.87,0,8.8Z"/><path class="cls-4" d="M99.89,30.29c1.15,8.07,2.2,16.13.19,24.21,1.48,0,3,.08,4.44.06,1.76,0,2.41-.72,2.44-2.54,0-2.17,0-4.33.05-6.5,0-3.08,0-6.17,0-9.25l0-6.35c0-1.36-.53-2.45-2-2.58s-1.45-.75-1.44-1.8c0-3.83,0-7.67,0-11.5,0-.46.32-1.07-.44-1.28l-1.29.06q0,6.08,0,12.15c0,2.33,0,2.33-2.32,2.26h0C99.62,28.25,99.75,29.27,99.89,30.29Z"/><path class="cls-2" d="M104.29,110.87c-.69-.4-1.37-.83-2.05-1.25-.26,1.19.31,2.31.29,3.48a15.84,15.84,0,0,0,2.13,5.17h0a13.59,13.59,0,0,0,4.09,3.14,20,20,0,0,0,7.69,1.25c4-.26,6.21-2.55,6.4-6.56,0-.4,0-.8,0-1.2h0c-.07-.6-.18-1.17-1-1.15C115.73,114.61,109.79,114.08,104.29,110.87Z"/><path class="cls-2" d="M8.08,122.7a24.7,24.7,0,0,0,7.14-1.27h0a27.68,27.68,0,0,0,3.89-2.81c.88-1.74,1.93-3.42,2.13-5.43h0c.15-1.17.67-2.32.27-3.53-6,4.22-12.6,5.1-19.64,4.07h0c-1.39.63-.27,1.93-.75,2.8C1.58,120.63,3.85,122.64,8.08,122.7Z"/><path class="cls-5" d="M24.26,92.4c.66-1.76,1.79-3.44.8-5.45-.28-.55,0-1,.45-1.33a30.2,30.2,0,0,1,7.37-4.94h0V72.22h0a44.88,44.88,0,0,0-11.53,7.06c-.89.74-1.64,1.14-2.65.3-.38-.31-.87-.73-1.34-.16-.66.82-1.63,1.46-1.72,2.66h0A17.2,17.2,0,0,1,24.26,92.4Z"/><path class="cls-6" d="M91.23,80.68h0a35.46,35.46,0,0,1,7,4.85c.4.36,1,.66.59,1.41-1,2,.06,3.71.85,5.45,1.28-4.77,4.44-8,8.6-10.35-.18-1.15-1.13-1.79-1.77-2.63a.63.63,0,0,0-1,0c-1.38,1.39-2.35.38-3.44-.48A35.23,35.23,0,0,0,91.2,72.5h0Z"/><path class="cls-7" d="M116.44,122.66a20,20,0,0,1-7.69-1.25,13.5,13.5,0,0,1,1.37,3.72h5.59a.64.64,0,0,1,.7-.48.58.58,0,0,1,.59.48h2.93c0-.67,0-1.35,0-2,0-.27.14-.6.5-.58s.35.37.36.64a14.87,14.87,0,0,0,0,1.89s0,0,0,.07h3V125a54,54,0,0,0-.06-6.36c-.13-1.25,0-2.66-.92-3.74h0c0,.4,0,.8,0,1.2C122.65,120.11,120.45,122.4,116.44,122.66Z"/><path class="cls-8" d="M3.08,123.59c0-.4-.28-1.09.42-1.08s.49.68.49,1.12,0,1-.05,1.5H7c0-.29.08-.58.49-.56a.77.77,0,0,1,.67.56h5.6a10.36,10.36,0,0,1,1.44-3.7h0a24.7,24.7,0,0,1-7.14,1.27c-4.23-.06-6.5-2.07-7-6.17l-.47-1.18a26.22,26.22,0,0,0-.57,8.32c0,.43,0,1-.06,1.46H3.07A13.19,13.19,0,0,0,3.08,123.59Z"/><path class="cls-9" d="M70.94,65.86a107.25,107.25,0,0,1-21.86-.69c0,.69,0,1.38-.08,2.06-.16,1.21.33,1.55,1.53,1.54,8.95,0,17.91,0,26.86,0,.64,0,1.61.18,1.35-.93-.21-.91,1-2.43-1-2.68h0C75.48,65.37,73.22,65.66,70.94,65.86Z"/><path class="cls-10" d="M22.39,10.06A5,5,0,0,0,26.85,4.4,5.1,5.1,0,0,0,16.73,5.64c.28,2.28,1.75,3.62,3.79,4.44h0l1,.06Z"/><path class="cls-6" d="M104.12,12.47a4.89,4.89,0,0,0,3.32-4.74,5,5,0,0,0-3-4.75,5.08,5.08,0,0,0-5.81,1.3,5.19,5.19,0,0,0,3.25,8.54h0l1.29-.06C103.47,12.66,103.8,12.58,104.12,12.47Z"/><path class="cls-6" d="M101.8,104.51h0a12.09,12.09,0,0,0,.44,5.11h0c.68.42,1.36.85,2.05,1.25,5.5,3.21,11.44,3.74,17.61,2.88.19-.35.95-.14.75-.9-.27-1.08-.16-2.27-.93-3.21h0c-.22.06-.43.13-.66.18C113.68,111.55,107,110.67,101.8,104.51Z"/><path class="cls-5" d="M21.51,109.66c.52-1.6,1.12-3.19.36-4.89h0a12.9,12.9,0,0,1-2.72,2.6c-5.24,3.71-10.95,3.9-16.9,2.29h0c-.62,1.31-1.75,2.57-.38,4.07h0C8.91,114.76,15.56,113.88,21.51,109.66Z"/><path class="cls-11" d="M24.1,123.64a2,2,0,0,0,1.59-2.19,10.79,10.79,0,0,0-4.45-8.26h0c-.2,2-1.25,3.69-2.13,5.43.74,1.22.75,2.78,1.77,3.87A3.12,3.12,0,0,0,24.1,123.64Z"/><path class="cls-12" d="M98.32,119.93c-.37,1.41-.32,2.76,1.17,3.56,1.22.66,2.81.07,3.82-1.38a11.14,11.14,0,0,0,1.35-3.84h0a15.84,15.84,0,0,1-2.13-5.17A13,13,0,0,0,98.32,119.93Z"/><path class="cls-13" d="M17.3,42.69h0c0-2.93,0-5.87,0-8.8A4,4,0,0,0,13.84,38C13.74,40.5,15.16,42.42,17.3,42.69Z"/><path class="cls-5" d="M110.41,40.88c0-2.17-1.12-3.67-3.41-4.61,0,3.08,0,6.17,0,9.25A5,5,0,0,0,110.41,40.88Z"/><path class="cls-14" d="M80.25,17.21a40.4,40.4,0,0,0-9.52-2,34.52,34.52,0,0,0-10.74.4,33,33,0,0,0-16.14,7.5C39.73,26.75,38,31.6,37.4,36.9c-.36,3.17-.91,6.32-1.19,9.51a29.86,29.86,0,0,0,.59,8c.1.53.61,1,.1,1.6a15.34,15.34,0,0,0,4.33,2c9.84,3.34,20,4,30.22,2.93a44.43,44.43,0,0,0,14.09-3.57c4.67-2.13,7.21-5.47,7.12-10.84a111.61,111.61,0,0,0-1.45-15.91c-.88-5.35-3.76-9.36-8-12.52C82.05,18.37,81.18,17.55,80.25,17.21Zm-32,25.29c-1-.1-2.08.32-3-.41h0c-.39.36-.69.19-.65-.25a92.57,92.57,0,0,0,.12-11.66c0-.39.31-.4.6-.41,1-.63,2.13-.26,3.2-.29.65,0,.86.47.86,1.05,0,3.62,0,7.23,0,10.85C49.44,42.17,49.08,42.57,48.29,42.5Zm20.33,6.92a10.56,10.56,0,0,1-6.28,1.68,14.19,14.19,0,0,1-6.4-1.35c-1.17-.49-2.09-1.23-1.49-2.6s1.68-1.14,2.79-.65c3.25,1.45,6.48,1.72,9.72-.1a1.66,1.66,0,0,1,2.48.71A1.62,1.62,0,0,1,68.62,49.42ZM80.07,43c-3.38.6-3.78.27-3.75-3.14,0-3.1,0-6.19,0-9.29,0-1.21.25-2,1.78-1.63A5.21,5.21,0,0,0,80,28.91c.66-.06.79.29.74.83.63.46.42,1.14.42,1.74,0,2.75,0,5.51,0,8.26,0,.8-.13,1.65,1,2C81.24,42.06,80.92,42.88,80.07,43Z"/><path class="cls-15" d="M36.9,56c.51-.57,0-1.07-.1-1.6a29.86,29.86,0,0,1-.59-8c.28-3.19.83-6.34,1.19-9.51.6-5.3,2.33-10.15,6.45-13.81A33,33,0,0,1,60,15.59a34.52,34.52,0,0,1,10.74-.4,40.4,40.4,0,0,1,9.52,2c.93.34,1.8,1.16,2.94.86a5.48,5.48,0,0,0-.8-.64c-12.9-7.67-26-7.93-39.18-.8-4.44,2.4-8,6-9.4,11a69.52,69.52,0,0,0-2.57,20.05C31.32,51.65,33.11,54.49,36.9,56Z"/><path class="cls-16" d="M72.91,82.07C67.36,78.32,61.4,78,55.21,80.42h0c-1.61,1.42-3.49,2.48-5,4.1a10.63,10.63,0,0,0-2.53,5.82h0l13.33.09c-1.06-2.56-2.63-4.86-3.87-7.33-.13-.26-1-.89.18-1h0c1.1,0,2.29-.2,1.85,1.6-.18.78.8.6,1.08,1.13a23.13,23.13,0,0,0,2.92,4.71c.22.26.11.53,0,.8h0l14.39.06h0A9.66,9.66,0,0,0,72.91,82.07Z"/><path class="cls-17" d="M46.65,90.37c.2-4.61,2.9-7.53,6.58-9.81h0a2.06,2.06,0,0,1,1.6-1.41,26.26,26.26,0,0,1,12.48-.85c.48.1.88.24,1.06.73a17.82,17.82,0,0,1,8.13,5.49h0c2,1.31,2.52,3.43,2.94,5.59h0a2.56,2.56,0,0,0,2.11-2.87c0-2.36,0-4.71,0-7.07,0-3-1-4-4.05-4-5.68,0-11.37,0-17.06,0-4.71,0-9.42,0-14.13,0-2.66,0-3.71,1.17-3.69,3.82,0,2.12,0,4.25,0,6.37C42.63,89.43,43.61,90.4,46.65,90.37Z"/><path class="cls-16" d="M42.93,99.71c.75.07,1.62.38,2.21-.47s1.07-1.46,1.8-2.44c.41,1.81.76,3.37,1.18,5.25.06,0,.1,0,.16,0h0L51,94.57c.16.75.22,1,.27,1.26C52,99.35,52,99.34,55.3,100c.64.11.57-.41.69-.72.41-1,.77-2.12,1.3-3.59.62,1.87,1.12,3.36,1.7,5.08a2.21,2.21,0,0,1,2.76-1.32,3.67,3.67,0,0,0,4.1-2,19,19,0,0,1,1.44-1.82c.3,1.59.55,2.91.81,4.25,1.56-.79,3.2-.28,4.78-.42,2.27-.21,1.88,2.28,3.35,3.19l1.45-9.21h.24c.44,1.67.89,3.34,1.31,5,.31,1.2.92,1.64,2.06.94,0-1,0-2.06,0-3.09,0-2.43-.93-3.41-3.4-3.49-1.72-.06-3.44,0-5.15,0-8.82,0-17.64,0-26.46,0-2.57,0-3.45.69-3.92,2.89.11.51,0,1.05.06,1.54a2.28,2.28,0,0,1,0,.74c0,.15,0,.3,0,.45C42.45,98.83,42.06,99.63,42.93,99.71Z"/><path class="cls-16" d="M42.35,99.28c0-.34,0-.68,0-1A2.68,2.68,0,0,0,42.35,99.28Z"/><path class="cls-18" d="M74,104.6c-1-.34.71-.9.67-1.6-.67-1.07-.7-2.6-2.63-2.68s-2.86.48-3.15,2.36a21.56,21.56,0,0,1-1,3c-.48-2.55-.86-4.62-1.33-7.14h-.12c-1.11,2.29-3,1.79-4.71,1.79a1.34,1.34,0,0,0-1.41,1c-.38.94-.87,1.84-1.42,3-.53-1.52-1-2.83-1.47-4.22a1.27,1.27,0,0,0-.23.08c-.53.68-.55,1.51-1.1,2.31a4.62,4.62,0,0,0-4.94-2.16c-.47.07-.83-.09-1,.53-.55,2-1.58,3.93-1.86,6.05h0c.74,0,1.49,0,2.23,0l25.5-.06C75.24,106.18,75.29,105,74,104.6Z"/><path class="cls-19" d="M42.37,101.37c.15-.86.83-.56,1.35-.62.85-.08,1.81.31,2.54-.92.55,2.56,1,4.78,1.5,7h0l.48.1h0c.28-2.12,1.31-4,1.86-6.05.18-.62.54-.46,1-.53a4.62,4.62,0,0,1,4.94,2.16c.55-.8.57-1.63,1.1-2.31.06-.07.11-.14.18-.21l.05.13c.48,1.39.94,2.7,1.47,4.22.55-1.16,1-2.06,1.42-3a1.34,1.34,0,0,1,1.41-1c1.71,0,3.6.5,4.71-1.79a1.3,1.3,0,0,0,.08-.17l0,.18c.47,2.52.85,4.59,1.33,7.14a21.56,21.56,0,0,0,1-3c.29-1.88,1.27-2.44,3.15-2.36s2,1.61,2.63,2.68l2.25,3.5H77l.13,0c.26-2.4.49-4.48.74-6.72,1,1.09,2.39.44,3.43,1.17h0a2,2,0,0,0,0-1.58h0c-1.14.7-1.75.26-2.06-.94-.42-1.67-.87-3.34-1.31-5h-.24l-1.45,9.21c-1.47-.91-1.08-3.4-3.35-3.19-1.58.14-3.22-.37-4.78.42-.26-1.34-.51-2.66-.81-4.25a19,19,0,0,0-1.44,1.82,3.67,3.67,0,0,1-4.1,2A2.21,2.21,0,0,0,59,100.72c-.58-1.72-1.08-3.21-1.7-5.08-.53,1.47-.89,2.54-1.3,3.59-.12.31-.05.83-.69.72-3.28-.61-3.28-.6-4.07-4.12,0-.25-.11-.51-.27-1.26l-2.65,7.51-.11.31-.08-.34c-.42-1.88-.77-3.44-1.18-5.25-.73,1-1.28,1.7-1.8,2.44s-1.46.54-2.21.47-.48-.88-.52-1.38c0-.15,0-.3,0-.45,0-.76,0-1.52-.07-2.29,0,.89,0,1.78,0,2.67,0,.34,0,.68,0,1C42.36,100,42.36,100.68,42.37,101.37Z"/><path class="cls-20" d="M43.72,100.75c-.52.06-1.2-.24-1.35.62,0,.52,0,1,0,1.55,0,2.88,1.16,4,4,4,.46,0,.91-.05,1.37-.07h0c-.48-2.22-.95-4.44-1.5-7C45.53,101.06,44.57,100.67,43.72,100.75Z"/><path class="cls-21" d="M76.5,84.52h0A17.82,17.82,0,0,0,68.37,79a21.14,21.14,0,0,0-15.14,1.53h0c-3.68,2.28-6.38,5.2-6.58,9.81l.74,0c.4-5,3.37-8.07,7.82-9.92h0c6.19-2.47,12.15-2.1,17.7,1.65a9.66,9.66,0,0,1,4.71,8.33h0l.78-.09A11.3,11.3,0,0,0,76.5,84.52Z"/><path class="cls-22" d="M77.11,106.44l0,.35-.18-.29L74.64,103c0,.7-1.7,1.26-.67,1.6,1.32.44,1.27,1.58,2,2.23.44,0,.89,0,1.34,0,2.92,0,3.93-1,3.93-4,0-.68,0-1.36,0-2h0c-1-.73-2.48-.08-3.43-1.17C77.6,102,77.37,104,77.11,106.44Z"/><path class="cls-23" d="M57.37,82.1h0c-1.22.11-.31.74-.18,1,1.24,2.47,2.81,4.77,3.87,7.33a2.78,2.78,0,0,0,1.8-.1Z"/><path class="cls-24" d="M63.22,89.54a23.13,23.13,0,0,1-2.92-4.71C60,84.3,59,84.48,59.22,83.7c.44-1.8-.75-1.63-1.85-1.6h0l5.49,8.23h.37C63.33,90.07,63.44,89.8,63.22,89.54Z"/><path class="cls-25" d="M55.22,80.42h0c-4.45,1.85-7.42,4.87-7.82,9.92h.34a10.63,10.63,0,0,1,2.53-5.82C51.73,82.9,53.61,81.84,55.22,80.42Z"/><path class="cls-26" d="M76.5,84.52h0a11.3,11.3,0,0,1,1.9,5.79c.37.07.75.15,1-.2h0C79,88,78.53,85.83,76.5,84.52Z"/><path class="cls-27" d="M48.57,29.48c-1.07,0-2.18-.34-3.2.29q0,6.17-.07,12.32c.91.73,2,.31,3,.41.79.07,1.15-.33,1.14-1.12,0-3.62,0-7.23,0-10.85C49.43,30,49.22,29.46,48.57,29.48Z"/><path class="cls-28" d="M67,46.4c-3.24,1.82-6.47,1.55-9.72.1-1.11-.49-2.22-.64-2.79.65s.32,2.11,1.49,2.6a14.19,14.19,0,0,0,6.4,1.35,10.56,10.56,0,0,0,6.28-1.68,1.62,1.62,0,0,0,.82-2.31A1.66,1.66,0,0,0,67,46.4Z"/><path class="cls-29" d="M81.12,39.74c0-2.75,0-5.51,0-8.26,0-.6.21-1.28-.42-1.74.05-.54-.08-.89-.74-.83a5.21,5.21,0,0,1-1.88.06c-1.53-.4-1.79.42-1.78,1.63,0,3.1,0,6.19,0,9.29,0,3.41.37,3.74,3.75,3.14.85-.15,1.17-1,2.08-1.26C81,41.39,81.12,40.54,81.12,39.74ZM78.47,42.5c-1.2.09-1.92-.1-1.86-1.63.12-3.1.15-6.21,0-9.3-.09-1.84.61-2.35,2.27-2.14a4.55,4.55,0,0,1,1.83.31h0c0,3.73,0,7.46.07,11.19C80.83,42.88,79.56,42.42,78.47,42.5Z"/><path class="cls-30" d="M44.77,30.18a92.57,92.57,0,0,1-.12,11.66c0,.44.26.61.65.25h0q0-6.17.07-12.32C45.08,29.78,44.75,29.79,44.77,30.18Z"/><path class="cls-31" d="M68.37,79c-.18-.49-.58-.63-1.06-.73a26.26,26.26,0,0,0-12.48.85,2.06,2.06,0,0,0-1.6,1.41h0A21.14,21.14,0,0,1,68.37,79Z"/><path class="cls-32" d="M80.7,29.74a4.55,4.55,0,0,0-1.83-.31c-1.66-.21-2.36.3-2.27,2.14.16,3.09.13,6.2,0,9.3-.06,1.53.66,1.72,1.86,1.63s2.36.38,2.3-1.57C80.66,37.2,80.72,33.47,80.7,29.74Z"/><polygon class="cls-32" points="80.71 29.75 80.7 29.74 80.7 29.74 80.71 29.75"/></g></g></svg>