<svg xmlns="http://www.w3.org/2000/svg" viewBox="0 0 114.49 56.01"><defs><style>.cls-1{fill:#4884bc;}.cls-2{fill:#1f2326;}.cls-3{fill:#fff;}</style></defs><g id="圖層_2" data-name="圖層 2"><g id="圖層_3" data-name="圖層 3"><path class="cls-1" d="M110.19,7.43a8.74,8.74,0,0,1,4.17,7.31c.16,6.49.2,13,0,19.48-.13,4.24-3,7.2-7.1,9.31a22.37,22.37,0,0,1-10.37,2.39q-29.4,0-58.8,0c-2,0-2,0-1.38,1.69.76,2.24,1.41,4.52,2.28,6.72.53,1.32-.09,1.63-1.38,1.69-1.2-3.61-2.33-7.23-3.63-10.8-.46-1.28-.07-1.42,1.3-1.42q28.86,0,57.73,0a26.8,26.8,0,0,0,7.69-1.06c7.35-2.2,10.93-6.54,10.93-13.25,0-4.69,0-9.37,0-14.06C111.68,12.7,111.58,10,110.19,7.43Z"/><path class="cls-2" d="M110.19,7.43c1.39,2.55,1.49,5.27,1.45,8-.06,4.69,0,9.37,0,14.06,0,6.71-3.58,11.05-10.93,13.25A26.8,26.8,0,0,1,93,43.82q-28.86,0-57.73,0c-1.37,0-1.76.14-1.3,1.42,1.3,3.57,2.43,7.19,3.63,10.8-3.14-2.3-5.87-5-8.85-7.41-1.11-.9-2.2-1.81-3.3-2.72-1-.74-1.54-2.1-3.13-2.05-4.66.13-9.24-.12-13.59-1.71A23.34,23.34,0,0,1,2.82,38,10,10,0,0,1,0,31.1C0,24.87,0,18.63.05,12.4c.06-4,2.38-6.95,6-9.2A21.11,21.11,0,0,1,17.27,0C43,0,68.75,0,94.49.07,100.8.1,106.05,2.43,109.8,7a.5.5,0,0,0,.4.48ZM35.08,53.24l.54-.31c-1-2.87-1.85-5.76-2.91-8.6C32.27,43.16,32.55,43,33.9,43q29.63.06,59.26,0a23,23,0,0,0,8.23-1.34c5.37-2.05,9.18-5.2,9.27-10.64.1-6.1,0-12.2,0-18.3A9,9,0,0,0,108,6.27C104.32,2.49,99.45.84,93.9.83Q55.82.74,17.74.81a22.45,22.45,0,0,0-7.61,1.34C3.87,4.4.93,8.21.93,14v16.7a8.91,8.91,0,0,0,.43,3c1.46,4.22,5,6.61,9.55,8.15,3.62,1.23,7.41,1.16,11.2,1.08a3.19,3.19,0,0,1,2.41.85C28,47,31.56,50.11,35.08,53.24Z"/><path class="cls-1" d="M8.73,42.12c4.35,1.59,8.93,1.84,13.59,1.71,1.59,0,2.13,1.31,3.13,2.05-4.43.12-8.86.23-13-1.59A10.68,10.68,0,0,1,8.73,42.12Z"/><path class="cls-1" d="M110.2,7.45a.5.5,0,0,1-.4-.48C110,7.06,110.24,7.18,110.2,7.45Z"/><path class="cls-3" d="M35.08,53.24C31.56,50.11,28,47,24.52,43.84A3.19,3.19,0,0,0,22.11,43c-3.79.08-7.58.15-11.2-1.08C6.38,40.37,2.82,38,1.36,33.76a8.91,8.91,0,0,1-.43-3V14c0-5.83,2.94-9.64,9.2-11.89A22.45,22.45,0,0,1,17.74.81Q55.83.8,93.9.83c5.55,0,10.42,1.66,14.09,5.44a9,9,0,0,1,2.69,6.46c0,6.1.08,12.2,0,18.3-.09,5.44-3.9,8.59-9.27,10.64A23,23,0,0,1,93.16,43Q63.54,43,33.9,43c-1.35,0-1.63.18-1.19,1.35,1.06,2.84,1.95,5.73,2.91,8.6Zm73.45-32.4V15.56c0-.33.13-.8-.51-.77s-.38.44-.38.73c0,3.52,0,7.05,0,10.57,0,.31-.19.82.48.76s.4-.54.4-.85C108.54,24.28,108.53,22.56,108.53,20.84ZM3.86,18.73v-5.3c0-.34.12-.79-.53-.76s-.39.44-.39.72q0,5.3,0,10.61c0,.3-.2.8.5.74s.4-.53.41-.84C3.87,22.18,3.86,20.45,3.86,18.73Zm104.67-5.34c0-.29.09-.66-.38-.72s-.55.26-.51.58-.21.77.42.79S108.49,13.68,108.53,13.39ZM3.59,26.84c.47-.06.22-.49.26-.79s-.14-.63-.59-.53-.27.57-.32.87S3,26.91,3.59,26.84Z"/><text/></g></g></svg>